<?xml version="1.0" encoding="UTF-8"?>
<svg version="1.1" xmlns="http://www.w3.org/2000/svg" width="1024" height="1536">
<path d="M0 0 C337.92 0 675.84 0 1024 0 C1024 506.88 1024 1013.76 1024 1536 C686.08 1536 348.16 1536 0 1536 C0 1029.12 0 522.24 0 0 Z " fill="#FEFEFE" transform="translate(0,0)"/>
<path d="M0 0 C7.26 0 14.52 0 22 0 C22 39.27 22 78.54 22 119 C14.74 119 7.48 119 0 119 C-0.33 115.7 -0.66 112.4 -1 109 C-1.639375 109.886875 -2.27875 110.77375 -2.9375 111.6875 C-7.2647921 116.89011329 -13.33136229 120.06639072 -20 121 C-31.98388624 121.73395287 -40.72965384 121.51161244 -50.3125 113.625 C-58.73311931 105.68794101 -62.51005843 94.49321266 -63 83 C-63.0515625 81.97519531 -63.103125 80.95039062 -63.15625 79.89453125 C-63.52636288 65.99987691 -61.40704239 52.41451368 -51.9609375 41.68359375 C-43.68919722 33.74798426 -35.48533411 31.37856689 -24.26660156 31.45214844 C-15.80089386 31.80346964 -9.17284421 35.21295856 -3 41 C-2.34 41.99 -1.68 42.98 -1 44 C-0.67 29.48 -0.34 14.96 0 0 Z " fill="#04CDC9" transform="translate(586,712)"/>
<path d="M0 0 C8.68018964 6.35857163 15.05761305 17.98547031 16.78125 28.62109375 C18.17152005 43.74028055 15.91430148 57.56024815 6.234375 69.66015625 C-1.06965903 77.30896111 -9.6813133 81.90843646 -20.3046875 82.43359375 C-22.16130931 82.45715369 -24.018341 82.45792052 -25.875 82.4375 C-26.84590576 82.42920166 -27.81681152 82.42090332 -28.81713867 82.41235352 C-40.20627806 82.14343929 -48.78844258 79.10289787 -57 71 C-67.00411082 59.39126943 -69.86402365 46.05951912 -69.17919922 31.06152344 C-68.21016095 19.91362271 -62.84385057 9.41137686 -54.875 1.6875 C-38.82677208 -11.74949083 -17.07685125 -10.53426785 0 0 Z " fill="#05CDCA" transform="translate(496,751)"/>
<path d="M0 0 C7.26 0 14.52 0 22 0 C22.33 17.16 22.66 34.32 23 52 C28.7407265 45.68520085 34.25364249 39.55335092 39.5859375 32.94921875 C42.33862057 29.58631306 45.1618772 26.29075831 48 23 C56.8123104 13.03122671 56.8123104 13.03122671 64.72753906 2.38037109 C67 0 67 0 69.93261719 -0.56762695 C71.04282227 -0.54144287 72.15302734 -0.51525879 73.296875 -0.48828125 C74.50214844 -0.47216797 75.70742188 -0.45605469 76.94921875 -0.43945312 C78.20347656 -0.39755859 79.45773437 -0.35566406 80.75 -0.3125 C82.65458984 -0.27866211 82.65458984 -0.27866211 84.59765625 -0.24414062 C87.73295773 -0.18520639 90.86588595 -0.10297079 94 0 C90.11550577 5.31759172 86.04530238 10.37746611 81.6875 15.3125 C77.79792607 19.75433151 73.96202432 24.21976692 70.25 28.8125 C67.36029545 32.38088745 64.3913586 35.84327626 61.3125 39.25 C60.21228516 40.46816406 60.21228516 40.46816406 59.08984375 41.7109375 C57.76173239 43.16565387 56.42180336 44.60973463 55.06640625 46.0390625 C53.18349571 48.02488166 53.18349571 48.02488166 51 51 C51.28677219 54.54783393 53.16338981 56.97183909 55.17578125 59.82421875 C55.83271973 60.76160889 56.4896582 61.69899902 57.16650391 62.66479492 C57.87468262 63.6622876 58.58286133 64.65978027 59.3125 65.6875 C60.03872559 66.72044189 60.76495117 67.75338379 61.51318359 68.81762695 C63.66976533 71.88248056 65.83407707 74.94174351 68 78 C69.07987662 79.53093301 70.15935407 81.06214773 71.23828125 82.59375 C73.14382734 85.29699602 75.05144544 87.99875871 76.9609375 90.69921875 C80.5629899 95.7954827 84.16051061 100.89487794 87.75 106 C88.37148926 106.88002686 88.99297852 107.76005371 89.63330078 108.66674805 C90.20290527 109.47797119 90.77250977 110.28919434 91.359375 111.125 C91.86952148 111.84945312 92.37966797 112.57390625 92.90527344 113.3203125 C94 115 94 115 94 116 C70.20128554 118.34903286 70.20128554 118.34903286 63.88574219 114.81787109 C60.58065655 111.56589175 58.85544296 107.47882957 57.05908203 103.26318359 C55.15432285 99.19284758 52.49652523 95.61738143 49.9375 91.9375 C48.92696182 90.43107953 47.92039812 88.92198474 46.91796875 87.41015625 C46.43118652 86.67684082 45.9444043 85.94352539 45.44287109 85.18798828 C41.90761356 79.8270783 38.44868289 74.4168706 35 69 C29.83126393 71.42756368 25.94737794 73.98878304 23 79 C21.54012206 85.17927082 21.92506294 91.69458131 22 98 C21.99189964 99.74611429 21.98021462 101.49221583 21.96484375 103.23828125 C21.92846433 107.49467389 21.96593023 111.74127918 22 116 C14.74 116 7.48 116 0 116 C0 77.72 0 39.44 0 0 Z " fill="#04CDCA" transform="translate(335,715)"/>
<path d="M0 0 C9.67702976 5.73830887 16.36465721 15.28492742 19.25 26.125 C20.20744807 32.34841246 20 38.7033684 20 45 C0.53 45 -18.94 45 -39 45 C-37.38895957 57.46781708 -37.38895957 57.46781708 -30.25 66.4375 C-24.19492418 69.45847058 -16.53813552 68.7781911 -10 68 C-4.70296729 66.09367101 -2.51800719 64.03601438 0 59 C6.27 59 12.54 59 19 59 C17.60644 67.36136002 13.62463683 73.40410521 6.99609375 78.71875 C-4.7100963 86.23270369 -19.26480468 86.54925689 -32.6328125 84.421875 C-42.85369245 81.48637423 -50.31429757 74.17399715 -55.8203125 65.26171875 C-62.20202131 53.02658827 -63.11999688 37.1929558 -59.375 24 C-55.84772903 14.07413573 -49.48298675 4.63297123 -39.9375 -0.3125 C-38.64378867 -0.91696132 -37.32837823 -1.47609756 -36 -2 C-34.67742188 -2.53560547 -34.67742188 -2.53560547 -33.328125 -3.08203125 C-22.81365635 -5.98214878 -9.57960601 -5.26387907 0 0 Z " fill="#05CCC9" transform="translate(681,748)"/>
<path d="M0 0 C9.9 0 19.8 0 30 0 C29.36003636 5.75967277 28.70403809 10.87799965 27.44042969 16.44506836 C27.28535194 17.13461074 27.1302742 17.82415312 26.97049713 18.53459072 C26.45889912 20.80407859 25.94040301 23.07193014 25.421875 25.33984375 C25.05446807 26.96365507 24.68751518 28.58756918 24.32098389 30.21157837 C23.33917523 34.55641165 22.35153235 38.89989904 21.36276245 43.24315262 C20.33799027 47.74912753 19.31851583 52.25629999 18.29882812 56.76342773 C17.06208591 62.228924 15.82503019 67.69434739 14.58569336 73.15925598 C12.0330849 84.41710522 9.49820103 95.67874145 6.984375 106.9453125 C6.67943139 108.31122522 6.37447954 109.6771361 6.06951904 111.04304504 C4.93824767 116.11120916 3.80764195 121.17951961 2.68005371 126.24850464 C1.92392047 129.64654327 1.16532316 133.04402336 0.40625 136.44140625 C0.08089264 137.90932114 0.08089264 137.90932114 -0.2510376 139.40689087 C-0.45372253 140.31232635 -0.65640747 141.21776184 -0.86523438 142.15063477 C-1.03744507 142.92415787 -1.20965576 143.69768097 -1.38708496 144.49464417 C-2.16794634 147.68649863 -3.09727125 150.84044937 -4 154 C-13.9 154 -23.8 154 -34 154 C-32.87498978 144.9999182 -32.87498978 144.9999182 -32.11856079 141.64050293 C-31.9479715 140.87428619 -31.7773822 140.10806946 -31.60162354 139.31863403 C-31.41678406 138.50643402 -31.23194458 137.69423401 -31.04150391 136.85742188 C-30.74592087 135.53754776 -30.74592087 135.53754776 -30.44436646 134.19100952 C-29.79208213 131.28275581 -29.13437833 128.37575711 -28.4765625 125.46875 C-28.01079488 123.39805812 -27.54533707 121.32729653 -27.08016968 119.25646973 C-26.0988695 114.89148866 -25.11511944 110.52706989 -24.12939453 106.16308594 C-22.90172233 100.7279527 -21.6779244 95.29195845 -20.4557991 89.85557556 C-13.71783693 59.88517942 -6.88214604 29.93758759 0 0 Z " fill="#02CECB" transform="translate(500,525)"/>
<path d="M0 0 C1.74023438 0.00966797 1.74023438 0.00966797 3.515625 0.01953125 C4.7221875 0.03628906 5.92875 0.05304687 7.171875 0.0703125 C9.00492187 0.08384766 9.00492187 0.08384766 10.875 0.09765625 C13.89070866 0.12121647 16.90631658 0.15708711 19.921875 0.1953125 C19.921875 6.1353125 19.921875 12.0753125 19.921875 18.1953125 C12.109375 18.4453125 12.109375 18.4453125 9.66088867 18.49316406 C5.49087282 18.63578329 5.49087282 18.63578329 2.20787048 20.947052 C0.75976 23.47873244 0.54945673 24.88327296 0.55297852 27.77685547 C0.54609512 28.67814178 0.53921173 29.5794281 0.53211975 30.50802612 C0.53827805 31.4747525 0.54443634 32.44147888 0.55078125 33.4375 C0.53339791 35.49349124 0.51581354 37.54948079 0.49804688 39.60546875 C0.48797722 42.84003838 0.48437721 46.07449738 0.48608398 49.30908203 C0.48250897 52.43555551 0.45514574 55.56117818 0.42578125 58.6875 C0.43396378 59.65017792 0.4421463 60.61285583 0.45057678 61.60470581 C0.37202261 68.70895082 -1.38646845 72.35411948 -6.328125 77.5703125 C-6.905625 78.1065625 -7.483125 78.6428125 -8.078125 79.1953125 C-7.500625 79.4015625 -6.923125 79.6078125 -6.328125 79.8203125 C-2.40961706 82.21495624 -0.50228726 85.92282572 0.921875 90.1953125 C0.97155096 93.17127028 0.96524056 96.12329849 0.9140625 99.09765625 C0.89654689 100.89257248 0.87963854 102.68749472 0.86328125 104.48242188 C0.8323056 107.31128515 0.79675989 110.13984907 0.75048828 112.96850586 C0.70815358 115.69909413 0.6847107 118.42932949 0.6640625 121.16015625 C0.64544159 122.00505112 0.62682068 122.84994598 0.6076355 123.72044373 C0.59237551 127.21415722 0.60548112 129.57031531 2.20092773 132.72192383 C5.06936928 135.17773951 8.50375485 134.8748467 12.109375 134.9453125 C14.6875 135.0278125 17.265625 135.1103125 19.921875 135.1953125 C19.921875 141.4653125 19.921875 147.7353125 19.921875 154.1953125 C16.25475456 154.27673705 12.58946752 154.33602061 8.921875 154.3828125 C7.89191406 154.40794922 6.86195313 154.43308594 5.80078125 154.45898438 C-1.46782422 154.52842965 -7.50722635 154.16898768 -13.3203125 149.328125 C-13.85914063 148.66554688 -14.39796875 148.00296875 -14.953125 147.3203125 C-15.50742187 146.66289063 -16.06171875 146.00546875 -16.6328125 145.328125 C-20.44495034 139.70264592 -20.34528359 134.62492496 -20.31640625 128.0390625 C-20.33181983 126.02733696 -20.34812301 124.01561807 -20.36523438 122.00390625 C-20.38171139 118.84376309 -20.39059999 115.68410855 -20.38354492 112.52392578 C-20.38092717 109.46591204 -20.40902106 106.40937856 -20.44140625 103.3515625 C-20.42609612 101.93731995 -20.42609612 101.93731995 -20.41047668 100.49450684 C-20.47898113 95.90034108 -20.57692339 93.8481949 -23.45068359 90.10473633 C-26.32943981 88.01267608 -27.87349871 87.52349755 -31.390625 87.3828125 C-32.9375 87.3209375 -34.484375 87.2590625 -36.078125 87.1953125 C-36.078125 80.5953125 -36.078125 73.9953125 -36.078125 67.1953125 C-33.31119792 66.77213542 -30.54427083 66.34895833 -27.77734375 65.92578125 C-24.90181868 65.14760008 -23.84008831 64.55029906 -22.078125 62.1953125 C-21.14807328 59.40515734 -20.95388486 57.73188315 -20.95214844 54.85083008 C-20.94834167 53.97594437 -20.94453491 53.10105865 -20.94061279 52.19966125 C-20.93958557 51.25592148 -20.93855835 50.3121817 -20.9375 49.33984375 C-20.91916651 47.33527515 -20.8995957 45.33071755 -20.87890625 43.32617188 C-20.84999004 40.17062884 -20.82812624 37.01579138 -20.82763672 33.86010742 C-20.82428795 30.81105172 -20.78964834 27.76361649 -20.75 24.71484375 C-20.7570697 23.78122513 -20.7641394 22.84760651 -20.77142334 21.88569641 C-20.6526965 15.44396396 -19.17957347 11.20296438 -15.078125 6.1953125 C-10.21570226 1.68867679 -6.6357555 -0.06505643 0 0 Z " fill="#03CECB" transform="translate(437.078125,524.8046875)"/>
<path d="M0 0 C4.00114881 -0.1355811 7.99765575 -0.23441636 12 -0.3125 C13.68802734 -0.3753418 13.68802734 -0.3753418 15.41015625 -0.43945312 C22.61756507 -0.5448246 27.49150488 0.16059422 33 5 C37.0964889 9.09519887 39.10891655 12.54983687 39.15771484 18.39208984 C39.17310806 19.71894302 39.17310806 19.71894302 39.18881226 21.07260132 C39.19611359 22.02575226 39.20341492 22.9789032 39.2109375 23.9609375 C39.23900391 25.97917481 39.26766836 27.99740387 39.296875 30.015625 C39.33814816 33.197589 39.3750364 36.37939869 39.40136719 39.56152344 C39.42898203 42.63248464 39.47485091 45.70274606 39.5234375 48.7734375 C39.52669037 49.72253998 39.52994324 50.67164246 39.53329468 51.64950562 C39.62428446 56.54254339 39.7293304 60.08194013 43 64 C46.65850618 66.77080956 46.65850618 66.77080956 55 67 C55 73.6 55 80.2 55 87 C52.55859375 87.09765625 50.1171875 87.1953125 47.67578125 87.29296875 C43.78680358 88.32056723 42.44650754 89.79829799 40 93 C39.28383267 96.44716362 39.34972675 99.82971028 39.3984375 103.33984375 C39.39043121 104.33955704 39.38242493 105.33927032 39.37417603 106.36927795 C39.35112124 109.55909885 39.360563 112.74764495 39.375 115.9375 C39.37885166 119.12354584 39.37536994 122.30902764 39.35440063 125.49501038 C39.34234504 127.4749873 39.34492516 129.45512261 39.36410522 131.43504333 C39.33839656 137.79496449 38.57027222 142.28721764 34.02734375 147.08203125 C33.33769531 147.65308594 32.64804687 148.22414063 31.9375 148.8125 C31.24527344 149.39644531 30.55304687 149.98039063 29.83984375 150.58203125 C26.48462959 153.16789694 24.31190868 153.11801897 20.1171875 153.09765625 C18.95058594 153.09443359 17.78398438 153.09121094 16.58203125 153.08789062 C15.35871094 153.07951172 14.13539063 153.07113281 12.875 153.0625 C11.64394531 153.05798828 10.41289063 153.05347656 9.14453125 153.04882812 C6.09633361 153.03701341 3.04816084 153.0190775 0 153 C0 147.06 0 141.12 0 135 C7.3125 134.6875 7.3125 134.6875 9.6027832 134.61206055 C13.40855192 134.43418052 13.40855192 134.43418052 16.70606995 132.71659851 C19.02586073 129.63903694 18.27334981 125.7156828 18.15234375 122.01953125 C18.1241278 120.19726904 18.09614033 118.37500327 18.06835938 116.55273438 C18.00639378 113.68688662 17.93773081 110.82135462 17.86303711 107.95581055 C17.79623731 105.18541447 17.75454493 102.41542915 17.71484375 99.64453125 C17.68478745 98.79840775 17.65473114 97.95228424 17.62376404 97.08052063 C17.55182613 91.24085297 18.67179049 86.85954341 22 82 C24.75 79.5 24.75 79.5 27 78 C26.05125 77.2575 25.1025 76.515 24.125 75.75 C21.55082201 73.73542592 20.26819167 72.01760451 19 69 C18.74171448 66.79956055 18.74171448 66.79956055 18.72875977 64.38671875 C18.71857315 63.47897705 18.70838654 62.57123535 18.69789124 61.63598633 C18.69575119 60.66298584 18.69361115 59.68998535 18.69140625 58.6875 C18.66625404 56.62239292 18.6408559 54.55728881 18.61523438 52.4921875 C18.58645104 49.23991619 18.56242915 45.98769651 18.54370117 42.73535156 C18.52207857 39.59413394 18.48265012 36.45351221 18.44140625 33.3125 C18.44129044 32.33949951 18.44117462 31.36649902 18.4410553 30.36401367 C18.42771652 29.45627197 18.41437775 28.54853027 18.40063477 27.61328125 C18.39556412 26.81704346 18.39049347 26.02080566 18.38526917 25.20043945 C17.89534254 22.4022558 16.97001621 21.02964609 15 19 C12.28641137 18.53735538 10.02702709 18.30671542 7.3125 18.25 C3.6928125 18.12625 3.6928125 18.12625 0 18 C0 12.06 0 6.12 0 0 Z " fill="#05CDCA" transform="translate(568,525)"/>
<path d="M0 0 C27.48148148 0 27.48148148 0 36.75 5.6875 C42.66870724 11.77061577 45.95738701 19.86377013 46.3125 28.3125 C46.09696825 36.73260694 43.35056549 44.48295879 37.46875 50.58984375 C26.53528398 60.75299739 15.28355636 58 0 58 C0 38.86 0 19.72 0 0 Z " fill="#0BCBC8" transform="translate(313,863)"/>
<path d="M0 0 C6.81167147 6.41188939 9.09214999 14.82737247 9.375 23.9375 C9.1030966 33.13492808 7.1164076 41.00981988 1 48 C-4.25081405 51.93811054 -9.55376325 52.44456805 -16 52 C-22.43077166 50.16263667 -26.4571753 46.68499777 -30 41 C-34.28416598 30.26687745 -34.51238354 19.01813704 -30.13671875 8.34765625 C-27.43206467 2.76175555 -23.99505804 -0.48463316 -18.1875 -2.6875 C-11.71034658 -3.61280763 -5.68279284 -3.49438814 0 0 Z " fill="#F9FEFE" transform="translate(482,764)"/>
<path d="M0 0 C7.17117519 6.80342262 9.47183742 13.34772278 9.79345703 23.22167969 C9.8837225 33.13236477 8.84051189 41.31344824 2.1328125 48.9375 C-2.62890442 52.79953769 -7.81042962 52.74023667 -13.6875 52.625 C-19.07054941 52.03988593 -21.60553195 49.29172312 -25.25 45.5625 C-30.05790909 38.80543857 -31.12257272 32.53422426 -31.0625 24.4375 C-31.05500732 23.11576782 -31.05500732 23.11576782 -31.04736328 21.76733398 C-30.84143217 14.09320457 -29.3548604 8.35136383 -24 2.6484375 C-17.57824149 -3.09903637 -7.63789929 -3.6179523 0 0 Z " fill="#F9FEFE" transform="translate(576.5625,763.6875)"/>
<path d="M0 0 C5.89375022 3.2768341 8.36874297 7.60080084 10.2734375 13.921875 C12.02977199 21.71083666 10.83868163 29.2245243 6.74609375 36.10546875 C3.74792791 40.11291814 0.53089531 41.87298956 -4.1875 43.3125 C-9.54988086 44.06073919 -13.56413399 43.17458372 -18.1875 40.3125 C-18.8475 39.6525 -19.5075 38.9925 -20.1875 38.3125 C-20.5175 44.9125 -20.8475 51.5125 -21.1875 58.3125 C-23.4975 58.3125 -25.8075 58.3125 -28.1875 58.3125 C-28.1875 38.8425 -28.1875 19.3725 -28.1875 -0.6875 C-25.8775 -0.6875 -23.5675 -0.6875 -21.1875 -0.6875 C-20.8575 0.6325 -20.5275 1.9525 -20.1875 3.3125 C-19.259375 2.673125 -18.33125 2.03375 -17.375 1.375 C-11.61087438 -2.35472834 -6.2780612 -2.90477459 0 0 Z " fill="#10C6C4" transform="translate(594.1875,878.6875)"/>
<path d="M0 0 C5.76456271 3.27766389 9.17809406 8.02637129 11.24609375 14.2421875 C12.85846005 21.06662162 12.13792136 28.19570157 8.75 34.375 C3.6600747 40.27392005 -1.31460279 42.85028037 -9 43.875 C-14.57685521 43.71412918 -19.01129796 40.80347227 -23.25 37.375 C-28.08202999 31.47764056 -28.67072083 24.91059533 -28.58984375 17.55078125 C-27.9659149 11.72027373 -25.74393846 6.74342296 -21.46484375 2.6796875 C-14.90315177 -2.19630442 -7.51848156 -3.43824299 0 0 Z " fill="#10C8C6" transform="translate(545.25,878.625)"/>
<path d="M0 0 C18.95296392 0 18.95296392 0 25.3125 5.875 C30.42616828 11.00267833 30.43590714 17.12525604 30.43823242 23.96777344 C30.2404887 31.5674046 27.82493211 35.3163145 22.5 40.375 C14.58800871 45.51779434 10.739212 44 0 44 C0 29.48 0 14.96 0 0 Z " fill="#F4FEFE" transform="translate(321,870)"/>
<path d="M0 0 C5.78849501 3.10863621 9.78768149 7.48344953 12.0625 13.6875 C12.50530366 16.69856488 12.375 19.76905018 12.375 22.8125 C1.815 22.8125 -8.745 22.8125 -19.625 22.8125 C-16.70827807 32.0082481 -16.70827807 32.0082481 -13.5 34.9375 C-9.16823912 36.25586201 -5.09860609 36.64479881 -0.625 35.8125 C1.08180947 34.18696717 2.75160195 32.52134005 4.375 30.8125 C7.17616579 30.36410246 9.51804183 30.5703849 12.375 30.8125 C10.3948287 36.7530139 7.98343853 39.89369973 2.375 42.8125 C-3.25777668 44.59245743 -8.78636916 44.3947331 -14.375 42.625 C-20.53325141 39.19059056 -24.16449204 34.71128712 -26.1875 27.92578125 C-27.61977276 21.00739229 -27.10290147 14.02006916 -23.625 7.8125 C-17.22571571 0.23440018 -9.7234294 -3.18526136 0 0 Z " fill="#0FC8C5" transform="translate(479.625,878.1875)"/>
<path d="M0 0 C5.35655658 2.99967168 8.01223811 8.41235845 9.85546875 14.0390625 C9.85546875 16.6790625 9.85546875 19.3190625 9.85546875 22.0390625 C-0.37453125 22.0390625 -10.60453125 22.0390625 -21.14453125 22.0390625 C-18.96255228 30.32744053 -18.96255228 30.32744053 -16.08203125 33.6015625 C-11.78275117 35.70546552 -7.83765571 35.98236493 -3.14453125 35.0390625 C-1.43772178 33.41352967 0.2320707 31.74790255 1.85546875 30.0390625 C4.65663454 29.59066496 6.99851058 29.7969474 9.85546875 30.0390625 C7.62623867 36.14011324 5.42151523 39.00132165 -0.33203125 42.2890625 C-6.15692428 43.84236731 -11.90623421 43.93715207 -17.45703125 41.4140625 C-23.14939429 38.10881945 -25.94249056 34.24777693 -27.95703125 28.1015625 C-29.87661334 20.7632744 -29.66735188 14.78009896 -26.14453125 8.0390625 C-19.87937245 -1.47258768 -10.61048872 -4.39196245 0 0 Z " fill="#13C6C4" transform="translate(640.14453125,878.9609375)"/>
<path d="M0 0 C4.46940879 2.57466956 7.14975739 6.45150585 9.30078125 11.046875 C9.92578125 14.109375 9.92578125 14.109375 9.92578125 22.109375 C-0.30421875 22.109375 -10.53421875 22.109375 -21.07421875 22.109375 C-18.89223978 30.39775303 -18.89223978 30.39775303 -16.01171875 33.671875 C-11.71243867 35.77577802 -7.76734321 36.05267743 -3.07421875 35.109375 C-1.36740928 33.48384217 0.3023832 31.81821505 1.92578125 30.109375 C4.72694704 29.66097746 7.06882308 29.8672599 9.92578125 30.109375 C8.65050387 35.59306775 6.4900467 37.88754056 1.92578125 41.109375 C-2.70802051 43.81242602 -7.86118328 43.74511103 -13.07421875 43.109375 C-19.00340229 41.29768003 -22.58537577 38.13741341 -26.07421875 33.109375 C-29.32440159 26.63197882 -28.76485902 19.14967732 -28.07421875 12.109375 C-25.88995326 5.90858827 -21.45201659 1.88716334 -15.69921875 -1.140625 C-10.17854567 -2.71796016 -5.2369086 -2.15577597 0 0 Z " fill="#12C6C2" transform="translate(395.07421875,878.890625)"/>
<path d="M0 0 C9.57 0 19.14 0 29 0 C28.32555426 4.72112018 27.61162568 8.83751343 26.37109375 13.37109375 C26.08935303 14.40935303 25.8076123 15.4476123 25.51733398 16.51733398 C25.16098877 17.81098877 24.80464355 19.10464355 24.4375 20.4375 C23.303125 24.583125 22.16875 28.72875 21 33 C11.43 33 1.86 33 -8 33 C-5.59182401 21.9051892 -3.00505082 10.94697085 0 0 Z " fill="#08CCC9" transform="translate(527,646)"/>
<path d="M0 0 C3.04642877 2.28647365 4.24215834 4.90960358 5.80078125 8.3515625 C5.80078125 8.6815625 5.80078125 9.0115625 5.80078125 9.3515625 C0.48828125 9.70572917 0.48828125 9.70572917 -2.19921875 9.3515625 C-3.53255208 8.01822917 -4.86588542 6.68489583 -6.19921875 5.3515625 C-10.45419791 4.60324306 -13.54560603 4.91582069 -17.19921875 7.3515625 C-17.44952852 9.93536427 -17.44952852 9.93536427 -17.19921875 12.3515625 C-13.27394462 14.53227035 -9.44020949 15.921188 -5.13671875 17.2265625 C-0.36789057 18.79447747 2.8985598 20.04826863 5.80078125 24.3515625 C7.00388382 28.48722757 7.10139323 30.56997136 5.55078125 34.6015625 C2.52124975 39.36225486 0.39843917 41.00397818 -5.19921875 42.3515625 C-11.29279208 43.00605741 -16.80960839 42.41217834 -22.19921875 39.3515625 C-25.40076225 36.23210986 -26.69237331 33.78646013 -27.19921875 29.3515625 C-24.01171875 29.0390625 -24.01171875 29.0390625 -20.19921875 29.3515625 C-19.45671875 30.1765625 -18.71421875 31.0015625 -17.94921875 31.8515625 C-14.20041649 35.25956455 -11.52598323 34.83539876 -6.625 34.72265625 C-4.0224422 34.56948368 -4.0224422 34.56948368 -2.19921875 32.3515625 C-2.03240766 29.26808424 -2.03240766 29.26808424 -2.19921875 26.3515625 C-3.33359375 25.9184375 -4.46796875 25.4853125 -5.63671875 25.0390625 C-6.36503906 24.75933594 -7.09335937 24.47960937 -7.84375 24.19140625 C-10.17423598 23.32450334 -10.17423598 23.32450334 -12.5234375 22.73046875 C-17.58188765 21.34776845 -21.01069592 19.62935325 -24.21875 15.37890625 C-25.72426444 12.26591026 -25.71464503 9.86826133 -25.08203125 6.50390625 C-23.51867865 2.6923696 -20.71180356 0.38784355 -17.19921875 -1.6484375 C-11.00572513 -3.59360023 -5.66374467 -3.05732237 0 0 Z " fill="#10C8C5" transform="translate(711.19921875,879.6484375)"/>
<path d="M0 0 C4.5406842 2.00634883 7.83043144 5.17354264 9.75 9.8125 C10.47950777 16.19569301 10.52185082 20.465663 7 26 C3.77592773 29.72783357 1.65165171 30.8441838 -3.3125 31.3125 C-7.78768692 30.93324687 -9.64980002 29.96949544 -13 27 C-16.26602067 21.55663222 -16.9073329 16.28075996 -16 10 C-14.6939144 6.2432484 -12.75784661 3.63495257 -9.6875 1.0625 C-6.21103887 -0.31191486 -3.71226652 -0.39774284 0 0 Z " fill="#F8FEFE" transform="translate(540,884)"/>
<path d="M0 0 C3.5898898 1.76107801 5.52102719 3.34540383 7.875 6.5625 C9.84406799 12.57909664 9.88186057 18.44724572 7.8125 24.4375 C5.69556098 27.43041379 4.21249846 29.18424 1 31 C-3.77965005 31.68402863 -7.82466647 31.58222933 -12 29 C-16.33743135 23.57821082 -16.44169873 18.91033199 -16.43359375 12.0859375 C-15.79785632 7.56131972 -13.90566899 4.9574215 -10.8125 1.6875 C-7.16441308 -0.50135215 -4.09964764 -0.78777543 0 0 Z " fill="#F6FEFE" transform="translate(589,884)"/>
<path d="M0 0 C5.20352218 3.50143549 7.98737419 7.8816891 9.65234375 13.90625 C9.65234375 15.22625 9.65234375 16.54625 9.65234375 17.90625 C-3.21765625 17.90625 -16.08765625 17.90625 -29.34765625 17.90625 C-28.29529873 10.53974734 -27.20786677 6.69119182 -21.97265625 1.59375 C-15.16226901 -2.78435608 -7.44765635 -3.46978998 0 0 Z " fill="#FAFEFE" transform="translate(671.34765625,762.09375)"/>
<path d="M0 0 C2.64 0 5.28 0 8 0 C11.63 10.23 15.26 20.46 19 31 C22.08212314 23.60290447 25.08686627 16.27106436 27.8125 8.75 C28.12380859 7.89792969 28.43511719 7.04585937 28.75585938 6.16796875 C29.50632071 4.11285925 30.25352823 2.05656198 31 0 C33.64 0 36.28 0 39 0 C37.52638719 4.03493825 36.05129264 8.06933107 34.57495117 12.10327148 C34.07521636 13.46934133 33.5758539 14.83554746 33.0769043 16.2019043 C29.80224409 25.16847138 26.45893 34.10248888 23 43 C20.69 43 18.38 43 16 43 C12.46141276 34.67174115 9.12822604 26.2753947 5.9230957 17.81445312 C5.17458878 15.84095861 4.42040115 13.86969129 3.66601562 11.8984375 C3.18715851 10.63815053 2.70862994 9.37773867 2.23046875 8.1171875 C1.80145264 6.98909668 1.37243652 5.86100586 0.93041992 4.69873047 C0 2 0 2 0 0 Z " fill="#0DC9C6" transform="translate(410,878)"/>
<path d="M0 0 C5.35655658 2.99967168 8.01223811 8.41235845 9.85546875 14.0390625 C9.85546875 16.6790625 9.85546875 19.3190625 9.85546875 22.0390625 C-6.47953125 22.5340625 -6.47953125 22.5340625 -23.14453125 23.0390625 C-23.14453125 24.0290625 -23.14453125 25.0190625 -23.14453125 26.0390625 C-23.80453125 26.0390625 -24.46453125 26.0390625 -25.14453125 26.0390625 C-25.47453125 26.6990625 -25.80453125 27.3590625 -26.14453125 28.0390625 C-28.06436338 26.11923037 -27.45002642 22.90987488 -27.51953125 20.3515625 C-27.48737582 12.46544429 -27.48737582 12.46544429 -24.76953125 9.1640625 C-22.14453125 7.0390625 -22.14453125 7.0390625 -20.14453125 7.0390625 C-20.47453125 8.6890625 -20.80453125 10.3390625 -21.14453125 12.0390625 C-21.80453125 12.0390625 -22.46453125 12.0390625 -23.14453125 12.0390625 C-22.81453125 13.6890625 -22.48453125 15.3390625 -22.14453125 17.0390625 C-9.27453125 17.5340625 -9.27453125 17.5340625 3.85546875 18.0390625 C3.85546875 17.0490625 3.85546875 16.0590625 3.85546875 15.0390625 C3.19546875 15.0390625 2.53546875 15.0390625 1.85546875 15.0390625 C1.44296875 14.1109375 1.03046875 13.1828125 0.60546875 12.2265625 C-1.52677262 8.32077345 -1.52677262 8.32077345 -5.14453125 6.0390625 C-9.2171778 5.58561319 -13.23375991 5.73547205 -17.14453125 7.0390625 C-17.76953125 4.7265625 -17.76953125 4.7265625 -18.14453125 2.0390625 C-13.96705686 -4.22714908 -6.21562087 -2.57281019 0 0 Z " fill="#10C8C5" transform="translate(640.14453125,878.9609375)"/>
<path d="M0 0 C2.31 0 4.62 0 7 0 C7 19.14 7 38.28 7 58 C4.69 58 2.38 58 0 58 C0 38.86 0 19.72 0 0 Z " fill="#0FC6C2" transform="translate(501,863)"/>
<path d="M0 0 C0 2.31 0 4.62 0 7 C-1.85625 7.37125 -1.85625 7.37125 -3.75 7.75 C-7.52401107 8.68515319 -9.55495822 9.87034653 -12 13 C-13.42267862 15.84535725 -13.21971869 18.36218552 -13.31640625 21.5390625 C-13.35830078 22.84101562 -13.40019531 24.14296875 -13.44335938 25.484375 C-13.48317299 26.86458045 -13.52288522 28.24478883 -13.5625 29.625 C-13.60569407 31.01303415 -13.64930865 32.40105528 -13.69335938 33.7890625 C-13.79972 37.19260256 -13.90174714 40.59621778 -14 44 C-16.31 44 -18.62 44 -21 44 C-21 29.81 -21 15.62 -21 1 C-18.69 1 -16.38 1 -14 1 C-13.67 2.32 -13.34 3.64 -13 5 C-12.21625 4.360625 -11.4325 3.72125 -10.625 3.0625 C-6.77510379 0.03758155 -4.85148682 -0.1054671 0 0 Z " fill="#0EC6C5" transform="translate(680,877)"/>
<path d="M0 0 C0.33 0 0.66 0 1 0 C1 38.28 1 76.56 1 116 C8.26 116 15.52 116 23 116 C22.95359375 113.36386719 22.9071875 110.72773437 22.859375 108.01171875 C22.82818485 105.46006191 22.80389407 102.90842625 22.78027344 100.35668945 C22.76015097 98.58250431 22.7328497 96.80838554 22.69824219 95.03442383 C22.64975008 92.48502233 22.62703847 89.93649705 22.609375 87.38671875 C22.58872986 86.59287277 22.56808472 85.79902679 22.54681396 84.98112488 C22.54589844 82.73706055 22.54589844 82.73706055 23 79 C25.02441406 76.97583008 25.02441406 76.97583008 27 76 C26.84080078 76.49097168 26.68160156 76.98194336 26.51757812 77.48779297 C25.78553362 81.04097123 25.78325457 84.58157299 25.71875 88.1953125 C25.70034058 88.98396698 25.68193115 89.77262146 25.66296387 90.58517456 C25.58443834 93.95264415 25.51640357 97.32030508 25.44775391 100.68798828 C25.39608071 103.14886506 25.33883043 105.60956802 25.28125 108.0703125 C25.26767456 108.83489777 25.25409912 109.59948303 25.2401123 110.38723755 C25.11285487 115.77429027 25.11285487 115.77429027 24 118 C16.08 118 8.16 118 0 118 C-1.13841488 115.72317024 -1.12227967 114.51906582 -1.11523438 111.99047852 C-1.11463013 111.11318588 -1.11402588 110.23589325 -1.11340332 109.33201599 C-1.10691772 108.33686478 -1.10043213 107.34171356 -1.09375 106.31640625 C-1.09016479 105.24064835 -1.08657959 104.16489044 -1.08288574 103.05653381 C-0.99766094 84.40358736 -0.7524747 65.75101761 -0.53643799 47.09924316 C-0.47507976 41.77515817 -0.41535113 36.45105489 -0.35546875 31.12695312 C-0.23853744 20.75128399 -0.11985431 10.37563575 0 0 Z " fill="#C3FEFE" transform="translate(334,715)"/>
<path d="M0 0 C2.8130683 1.34693525 3.85261471 2.53836321 6 5 C6.66 7.31 7.32 9.62 8 12 C-0.25 12 -8.5 12 -17 12 C-13.44005892 2.50682377 -10.3670272 -2.08070616 0 0 Z " fill="#FAFEFE" transform="translate(477,884)"/>
<path d="M0 0 C3.65512018 1.46204807 4.7664816 2.61348678 6.8125 6 C8 9 8 9 8 12 C0.08 12 -7.84 12 -16 12 C-14.96418824 5.78512943 -14.49754628 4.83936878 -10 1 C-6.801457 -0.5992715 -3.47898371 -0.36127908 0 0 Z " fill="#F8FEFE" transform="translate(390,884)"/>
<path d="M0 0 C5.77446862 3.52884193 6.03076094 5.10766329 8 12 C0.08 12 -7.84 12 -16 12 C-14.96418824 5.78512943 -14.49754628 4.83936878 -10 1 C-6.76079573 -0.61960213 -3.50121798 -0.56618209 0 0 Z " fill="#F6FDFD" transform="translate(635,884)"/>
<path d="M0 0 C1.47906892 -0.02689216 2.95827483 -0.04634621 4.4375 -0.0625 C5.26121094 -0.07410156 6.08492188 -0.08570313 6.93359375 -0.09765625 C9 0 9 0 10 1 C10.09905152 2.83572631 10.12799207 4.67527575 10.12939453 6.51367188 C10.13254669 7.69159302 10.13569885 8.86951416 10.13894653 10.08312988 C10.1369223 11.36538452 10.13489807 12.64763916 10.1328125 13.96875 C10.13376923 15.27453003 10.13472595 16.58031006 10.13571167 17.92565918 C10.13718833 20.69312722 10.13503511 23.46056304 10.13037109 26.22802734 C10.12467381 29.78262649 10.12795298 33.33715014 10.13394356 36.89174652 C10.13841747 40.27158714 10.13528886 43.65140723 10.1328125 47.03125 C10.13483673 48.31350464 10.13686096 49.59575928 10.13894653 50.91687012 C10.13579437 52.09479126 10.13264221 53.2727124 10.12939453 54.48632812 C10.12859894 55.52921997 10.12780334 56.57211182 10.12698364 57.64660645 C10 60 10 60 9 61 C7.1875 61.1328125 7.1875 61.1328125 5 61.125 C4.278125 61.12757813 3.55625 61.13015625 2.8125 61.1328125 C1 61 1 61 0 60 C-0.09386381 58.1281906 -0.11743804 56.2528194 -0.11352539 54.37866211 C-0.11344986 53.17749252 -0.11337433 51.97632294 -0.11329651 50.73875427 C-0.10813522 49.4314888 -0.10297394 48.12422333 -0.09765625 46.77734375 C-0.09579198 45.43355868 -0.09436812 44.08977293 -0.09336853 42.74598694 C-0.08954402 39.20317723 -0.07971432 35.6604083 -0.06866455 32.11761475 C-0.05844899 28.50484773 -0.0538706 24.89207416 -0.04882812 21.27929688 C-0.03809198 14.1861812 -0.02101636 7.09309326 0 0 Z M2 1 C2 20.14 2 39.28 2 59 C4.31 59 6.62 59 9 59 C9 39.86 9 20.72 9 1 C6.69 1 4.38 1 2 1 Z " fill="#D8FEFE" transform="translate(499,862)"/>
<path d="M0 0 C25 0 25 0 28 2 C19.42 2 10.84 2 2 2 C2 20.15 2 38.3 2 57 C14.375 56.505 14.375 56.505 27 56 C19.491031 61.00597933 9.02465758 58 0 58 C0 38.86 0 19.72 0 0 Z " fill="#27C0BE" transform="translate(313,863)"/>
<path d="M0 0 C3.64581687 -0.02887512 7.29160463 -0.04675585 10.9375 -0.0625 C12.49887695 -0.07506836 12.49887695 -0.07506836 14.09179688 -0.08789062 C15.08115234 -0.09111328 16.07050781 -0.09433594 17.08984375 -0.09765625 C18.46450806 -0.10551147 18.46450806 -0.10551147 19.86694336 -0.11352539 C22 0 22 0 23 1 C23.12232644 2.47250645 23.1777456 3.95065711 23.20532227 5.42797852 C23.22526749 6.36887833 23.24521271 7.30977814 23.26576233 8.27919006 C23.28247482 9.30209641 23.29918732 10.32500275 23.31640625 11.37890625 C23.33718735 12.42070541 23.35796844 13.46250458 23.37937927 14.53587341 C23.44499057 17.87801247 23.50381331 21.22023285 23.5625 24.5625 C23.60567422 26.82227418 23.64928814 29.08204001 23.69335938 31.34179688 C23.80068367 36.89444421 23.90242812 42.44717321 24 48 C25.65 46.68 27.3 45.36 29 44 C29.66 44.33 30.32 44.66 31 45 C29.52417192 46.66962369 28.04425109 48.3356306 26.5625 50 C25.73878906 50.928125 24.91507812 51.85625 24.06640625 52.8125 C23.38449219 53.534375 22.70257813 54.25625 22 55 C21.67 55 21.34 55 21 55 C21 37.51 21 20.02 21 2 C13.74 2 6.48 2 -1 2 C-0.67 1.34 -0.34 0.68 0 0 Z " fill="#CAFEFE" transform="translate(336,713)"/>
<path d="M0 0 C0.66 0.33 1.32 0.66 2 1 C1.38511719 1.65355469 1.38511719 1.65355469 0.7578125 2.3203125 C-0.05042969 3.21363281 -0.05042969 3.21363281 -0.875 4.125 C-1.40867187 4.70507812 -1.94234375 5.28515625 -2.4921875 5.8828125 C-4.47448815 8.44763196 -4.47448815 8.44763196 -6 14 C5.55 14 17.1 14 29 14 C28.34 12.68 27.68 11.36 27 10 C27.375 7.75 27.375 7.75 28 6 C31 12.5 31 12.5 31 17 C18.13 17 5.26 17 -8 17 C-6.98120685 9.86844798 -5.66284033 4.81341428 0 0 Z " fill="#E5FEFE" transform="translate(650,763)"/>
<path d="M0 0 C0.66 0 1.32 0 2 0 C2.02685095 2.47923801 2.04676547 4.9581884 2.0625 7.4375 C2.07087891 8.14455078 2.07925781 8.85160156 2.08789062 9.58007812 C2.09653588 11.38693559 2.05220011 13.19387603 2 15 C1 16 1 16 -1.36012268 16.12025452 C-2.40603073 16.11803391 -3.45193878 16.11581329 -4.52954102 16.11352539 C-5.71068985 16.11344986 -6.89183868 16.11337433 -8.10877991 16.11329651 C-9.3941716 16.10813522 -10.67956329 16.10297394 -12.00390625 16.09765625 C-13.31205795 16.0962413 -14.62020966 16.09482635 -15.96800232 16.09336853 C-19.45162859 16.0895441 -22.93521339 16.07971446 -26.41882324 16.06866455 C-29.97126708 16.05844882 -33.52371759 16.05387056 -37.07617188 16.04882812 C-44.05079832 16.03809212 -51.02539717 16.0210166 -58 16 C-58 17.98 -58 19.96 -58 22 C-58.33 22 -58.66 22 -59 22 C-59 19.36 -59 16.72 -59 14 C-39.53 14 -20.06 14 0 14 C0 9.38 0 4.76 0 0 Z " fill="#C4FEFE" transform="translate(701,779)"/>
<path d="M0 0 C0.33 0 0.66 0 1 0 C1.33 16.5 1.66 33 2 50 C0.35 50.99 -1.3 51.98 -3 53 C-3.763125 53.556875 -4.52625 54.11375 -5.3125 54.6875 C-8 56 -8 56 -16 56 C-16 61.94 -16 67.88 -16 74 C-16.33 74 -16.66 74 -17 74 C-17 67.73 -17 61.46 -17 55 C-14.23307292 54.57682292 -11.46614583 54.15364583 -8.69921875 53.73046875 C-5.82369368 52.95228758 -4.76196331 52.35498656 -3 50 C-2.07128591 47.21385774 -1.85649269 45.44556296 -1.81054688 42.56030273 C-1.79382935 41.66605087 -1.77711182 40.77179901 -1.7598877 39.85044861 C-1.74631226 38.88788651 -1.73273682 37.9253244 -1.71875 36.93359375 C-1.70034058 35.94375992 -1.68193115 34.95392609 -1.66296387 33.93409729 C-1.58421909 29.69356167 -1.51644754 25.45286667 -1.44775391 21.2121582 C-1.39609834 18.11922177 -1.33882767 15.02642466 -1.28125 11.93359375 C-1.26767456 10.96900742 -1.25409912 10.00442108 -1.2401123 9.01060486 C-1.22339478 8.11950516 -1.20667725 7.22840546 -1.18945312 6.31030273 C-1.17692505 5.52437241 -1.16439697 4.73844208 -1.15148926 3.92869568 C-1 2 -1 2 0 0 Z " fill="#20BEBB" transform="translate(418,537)"/>
<path d="M0 0 C1.87859054 1.58563661 2.89353567 2.52171572 3.43579102 4.95776367 C3.51013234 7.36999317 3.56799951 9.77390166 3.5625 12.1875 C3.56540039 13.47491089 3.56540039 13.47491089 3.56835938 14.78833008 C3.41918272 20.70284531 2.56691218 24.55522663 -1.6875 28.91796875 C-2.3371875 29.45357422 -2.3371875 29.45357422 -3 30 C-3.66 29.67 -4.32 29.34 -5 29 C-6.26229508 24.52459016 -6.26229508 24.52459016 -5 22 C-4.34 22 -3.68 22 -3 22 C-1.54364449 17.36393497 -1.62464099 12.48322812 -1.39453125 7.66796875 C-1.10159485 2.2031897 -1.10159485 2.2031897 0 0 Z " fill="#07CBC9" transform="translate(600,889)"/>
<path d="M0 0 C2 1 2 1 2.8515625 3.07421875 C3.10679687 3.93660156 3.36203125 4.79898438 3.625 5.6875 C4.01558594 6.96173828 4.01558594 6.96173828 4.4140625 8.26171875 C5 11 5 11 5 17 C-4.24 17 -13.48 17 -23 17 C-23.33 16.01 -23.66 15.02 -24 14 C-16.41 14 -8.82 14 -1 14 C-1 11.69 -1 9.38 -1 7 C-0.70307988 4.66175408 -0.37979153 2.32622311 0 0 Z " fill="#06CBC8" transform="translate(399,883)"/>
<path d="M0 0 C0.66 0.33 1.32 0.66 2 1 C1.67 1.66 1.34 2.32 1 3 C1.061875 4.1446875 1.061875 4.1446875 1.125 5.3125 C0.97056126 8.63293283 -0.22585733 10.23233744 -2 13 C-2.33 14.32 -2.66 15.64 -3 17 C4.92 17 12.84 17 21 17 C21.33 16.34 21.66 15.68 22 15 C22 15.99 22 16.98 22 18 C17.68751391 18.02886537 13.37505238 18.04675255 9.0625 18.0625 C7.21495117 18.07506836 7.21495117 18.07506836 5.33007812 18.08789062 C4.16025391 18.09111328 2.99042969 18.09433594 1.78515625 18.09765625 C0.15912476 18.10551147 0.15912476 18.10551147 -1.49975586 18.11352539 C-4 18 -4 18 -5 17 C-5.04063832 15.33382885 -5.042721 13.66611905 -5 12 C-4.34 12 -3.68 12 -3 12 C-2.67 10.35 -2.34 8.7 -2 7 C-2.804375 7.804375 -3.60875 8.60875 -4.4375 9.4375 C-5.625 10.625 -6.8125 11.8125 -8 13 C-8.23653523 15.52596259 -8.42173692 18.03107207 -8.5625 20.5625 C-8.60568359 21.27341797 -8.64886719 21.98433594 -8.69335938 22.71679688 C-8.79971777 24.47761912 -8.90038846 26.2387832 -9 28 C-9.33 28 -9.66 28 -10 28 C-11.74554762 20.79961606 -11.47628443 14.5549127 -8 8 C-3.47511312 1.73755656 -3.47511312 1.73755656 0 0 Z " fill="#1DC1C0" transform="translate(622,879)"/>
<path d="M0 0 C-0.33 1.65 -0.66 3.3 -1 5 C-1.66 5 -2.32 5 -3 5 C-2.67 6.65 -2.34 8.3 -2 10 C3.94 10.33 9.88 10.66 16 11 C16 11.66 16 12.32 16 13 C10.39 13 4.78 13 -1 13 C-1 13.99 -1 14.98 -1 16 C-1.66 16 -2.32 16 -3 16 C-3 16.99 -3 17.98 -3 19 C-3.66 19 -4.32 19 -5 19 C-5.33 19.66 -5.66 20.32 -6 21 C-7.91983213 19.08016787 -7.30549517 15.87081238 -7.375 13.3125 C-7.34284457 5.42638179 -7.34284457 5.42638179 -4.625 2.125 C-2 0 -2 0 0 0 Z " fill="#02CECC" transform="translate(620,886)"/>
<path d="M0 0 C1.07878418 0.01047363 2.15756836 0.02094727 3.26904297 0.03173828 C5.01894531 0.04140625 5.01894531 0.04140625 6.80419922 0.05126953 C8.02751953 0.06802734 9.25083984 0.08478516 10.51123047 0.10205078 C11.74228516 0.11107422 12.97333984 0.12009766 14.24169922 0.12939453 C17.28995852 0.15302445 20.33811836 0.18889639 23.38623047 0.22705078 C23.38623047 6.16705078 23.38623047 12.10705078 23.38623047 18.22705078 C18.10623047 18.22705078 12.82623047 18.22705078 7.38623047 18.22705078 C7.38623047 17.56705078 7.38623047 16.90705078 7.38623047 16.22705078 C12.00623047 16.22705078 16.62623047 16.22705078 21.38623047 16.22705078 C21.38623047 11.60705078 21.38623047 6.98705078 21.38623047 2.22705078 C12.80623047 2.22705078 4.22623047 2.22705078 -4.61376953 2.22705078 C-2.61376953 0.22705078 -2.61376953 0.22705078 0 0 Z " fill="#26C2BF" transform="translate(433.61376953125,524.77294921875)"/>
<path d="M0 0 C0.66 0.33 1.32 0.66 2 1 C4.71426141 1.23240505 7.40633767 1.41908802 10.125 1.5625 C12.72375 1.706875 15.3225 1.85125 18 2 C18 8.27 18 14.54 18 21 C14.29146989 21.05409525 10.58373414 21.09372152 6.875 21.125 C5.30492187 21.15013672 5.30492187 21.15013672 3.703125 21.17578125 C-1.59269336 21.20929909 -6.0571059 21.17213685 -11 19 C-7.74741974 18.00615603 -4.96534629 17.95173269 -1.578125 18.12109375 C-0.55332031 18.16943359 0.47148437 18.21777344 1.52734375 18.26757812 C2.59082031 18.32365234 3.65429688 18.37972656 4.75 18.4375 C5.82894531 18.48970703 6.90789062 18.54191406 8.01953125 18.59570312 C10.67994955 18.72519251 13.34001468 18.86190172 16 19 C16 13.72 16 8.44 16 3 C11.05 3 6.1 3 1 3 C0.67 2.01 0.34 1.02 0 0 Z " fill="#3ECAC8" transform="translate(439,658)"/>
<path d="M0 0 C0.66 0 1.32 0 2 0 C2 4.29 2 8.58 2 13 C-7.9 13 -17.8 13 -28 13 C-28 14.65 -28 16.3 -28 18 C-27.34 18.33 -26.68 18.66 -26 19 C-26.66 19.66 -27.32 20.32 -28 21 C-28.50403768 19.70990357 -29.00309926 18.41786211 -29.5 17.125 C-29.7784375 16.40570312 -30.056875 15.68640625 -30.34375 14.9453125 C-31 13 -31 13 -31 11 C-20.44 11 -9.88 11 1 11 C0.67 7.37 0.34 3.74 0 0 Z " fill="#BBFBFA" transform="translate(491,890)"/>
<path d="M0 0 C1.50308809 3.00617617 0.37497664 5.02898149 -0.4375 8.25 C-3.45618083 21.93839601 -1.58119461 34.44872831 1 48 C0.34 48 -0.32 48 -1 48 C-1.20496094 46.94039062 -1.40992188 45.88078125 -1.62109375 44.7890625 C-1.89307666 43.40101178 -2.16522044 42.01299256 -2.4375 40.625 C-2.57220703 39.92632813 -2.70691406 39.22765625 -2.84570312 38.5078125 C-3.5772422 34.64371266 -3.5772422 34.64371266 -5 31 C-5.0980731 28.13568858 -5.13902649 25.30124116 -5.125 22.4375 C-5.12886719 21.64408203 -5.13273438 20.85066406 -5.13671875 20.03320312 C-5.12663067 14.12663067 -5.12663067 14.12663067 -4 13 C-3.76807135 11.48530552 -3.58784762 9.96245438 -3.4375 8.4375 C-3.35371094 7.61121094 -3.26992188 6.78492188 -3.18359375 5.93359375 C-3.12300781 5.29550781 -3.06242188 4.65742187 -3 4 C-2.34 4 -1.68 4 -1 4 C-0.67 2.68 -0.34 1.36 0 0 Z " fill="#D2FDFD" transform="translate(526,765)"/>
<path d="M0 0 C0.33 0 0.66 0 1 0 C1.02689216 1.47906892 1.04634621 2.95827483 1.0625 4.4375 C1.07410156 5.26121094 1.08570313 6.08492187 1.09765625 6.93359375 C1 9 1 9 0 10 C-0.20604085 11.32781878 -0.3662959 12.66295895 -0.5 14 C-0.88888889 17.88888889 -0.88888889 17.88888889 -2 19 C-2.165 20.155 -2.33 21.31 -2.5 22.5 C-3 26 -3 26 -4 27 C-4.23323286 28.96581986 -4.46555065 30.93175641 -4.69140625 32.8984375 C-5.10937067 35.74482811 -6.0428452 38.28806139 -7 41 C-8.03481072 44.65734574 -9.01984019 48.32766791 -10 52 C-11.08286808 48.69650794 -10.8917295 46.50401359 -10.10375977 43.13964844 C-9.88345596 42.17895447 -9.66315216 41.2182605 -9.43617249 40.22845459 C-9.19039963 39.19915833 -8.94462677 38.16986206 -8.69140625 37.109375 C-8.44583481 36.04962463 -8.20026337 34.98987427 -7.94725037 33.89801025 C-7.16085505 30.51328722 -6.3618467 27.13168529 -5.5625 23.75 C-5.02716154 21.45592345 -4.49264613 19.16165467 -3.95898438 16.8671875 C-2.64886553 11.24252612 -1.32837852 5.6203753 0 0 Z " fill="#23BFBE" transform="translate(498,534)"/>
<path d="M0 0 C0 2.31 0 4.62 0 7 C-1.2375 7.28875 -2.475 7.5775 -3.75 7.875 C-6.72448742 8.61334794 -9.333856 9.44474933 -12 11 C-12 9.68 -12 8.36 -12 7 C-11.01 7 -10.02 7 -9 7 C-10.32 6.34 -11.64 5.68 -13 5 C-8.22381734 1.10364046 -6.19598355 -0.13469529 0 0 Z " fill="#0ACAC8" transform="translate(680,877)"/>
<path d="M0 0 C2.72741654 0.68185413 4.52481231 1.35629527 6.22265625 3.65625 C9 8.5141129 9 8.5141129 9 10 C3.68403909 10.35439739 3.68403909 10.35439739 1 10 C0.360625 9.34 -0.27875 8.68 -0.9375 8 C-3.46584323 5.54827323 -4.3268943 5.72870541 -7.75 5.75 C-9.16767057 5.81402383 -10.58506449 5.89115881 -12 6 C-12 5.34 -12 4.68 -12 4 C-6.06 3.505 -6.06 3.505 0 3 C0 2.01 0 1.02 0 0 Z " fill="#1CC4C2" transform="translate(708,879)"/>
<path d="M0 0 C0.33 0 0.66 0 1 0 C1 3.3 1 6.6 1 10 C0.34 10 -0.32 10 -1 10 C-0.98839844 10.63808594 -0.97679687 11.27617188 -0.96484375 11.93359375 C-0.95582031 12.75988281 -0.94679688 13.58617187 -0.9375 14.4375 C-0.92589844 15.26121094 -0.91429687 16.08492187 -0.90234375 16.93359375 C-1 19 -1 19 -2 20 C-2.23075082 21.34747084 -2.41153063 22.70377565 -2.5625 24.0625 C-2.706875 25.361875 -2.85125 26.66125 -3 28 C-3.66 28 -4.32 28 -5 28 C-4.97679687 28.56847656 -4.95359375 29.13695312 -4.9296875 29.72265625 C-4.80808312 34.92558648 -5.32276508 39.07312243 -7 44 C-7.66 44 -8.32 44 -9 44 C-8.37149655 38.34626226 -7.41417371 32.88776552 -6.15234375 27.34375 C-5.97619034 26.55601196 -5.80003693 25.76827393 -5.61854553 24.95666504 C-5.06170924 22.47030613 -4.49969798 19.98515142 -3.9375 17.5 C-3.55629618 15.80216063 -3.17543357 14.10424462 -2.79492188 12.40625 C-1.86722091 8.26993735 -0.93488083 4.13469552 0 0 Z " fill="#D0FDFD" transform="translate(528,534)"/>
<path d="M0 0 C10.23 0 20.46 0 31 0 C31 0.66 31 1.32 31 2 C21.43 2 11.86 2 2 2 C2.66 4.64 3.32 7.28 4 10 C2.5625 8.9375 2.5625 8.9375 1 7 C0.67 4.69 0.34 2.38 0 0 Z " fill="#B4F9F8" transform="translate(619,901)"/>
<path d="M0 0 C1.7734375 1.52734375 1.7734375 1.52734375 3 3 C1.68 3 0.36 3 -1 3 C-1 2.34 -1 1.68 -1 1 C-6.48927968 2.18396228 -9.29445897 3.53155347 -13 8 C-13.33 8.99 -13.66 9.98 -14 11 C-7.4 11 -0.8 11 6 11 C6.33 9.68 6.66 8.36 7 7 C7.33 8.65 7.66 10.3 8 12 C-0.25 12 -8.5 12 -17 12 C-13.49508291 2.65355442 -10.33337796 -2.14794935 0 0 Z " fill="#D0FDFD" transform="translate(477,884)"/>
<path d="M0 0 C0.66 0.33 1.32 0.66 2 1 C1.38511719 1.65355469 1.38511719 1.65355469 0.7578125 2.3203125 C-2.61090002 6.04362634 -4.78240479 9.00785965 -6 14 C-4.35 14 -2.7 14 -1 14 C-1 14.33 -1 14.66 -1 15 C9.23 15.33 19.46 15.66 30 16 C30 16.33 30 16.66 30 17 C17.46 17 4.92 17 -8 17 C-6.98120685 9.86844798 -5.66284033 4.81341428 0 0 Z " fill="#B2F4F4" transform="translate(650,763)"/>
<path d="M0 0 C1.89453748 2.84180622 3.00192814 5.31564815 4.1875 8.5 C4.55230469 9.4590625 4.91710937 10.418125 5.29296875 11.40625 C6 14 6 14 5 17 C4.01 17 3.02 17 2 17 C2 18.98 2 20.96 2 23 C0.2133211 20.31998165 -0.9322137 17.96871256 -2.125 15 C-2.65480469 13.700625 -2.65480469 13.700625 -3.1953125 12.375 C-4 10 -4 10 -4 7 C-3.34 7 -2.68 7 -2 7 C-2 8.32 -2 9.64 -2 11 C-1.01 10.34 -0.02 9.68 1 9 C0.67 6.03 0.34 3.06 0 0 Z " fill="#19C4C0" transform="translate(421,889)"/>
<path d="M0 0 C-1.78985885 5.36957654 -3.65211558 8.00148462 -8.28125 11.25 C-10 12 -10 12 -13 11 C-11.68 10.67 -10.36 10.34 -9 10 C-8.67 8.35 -8.34 6.7 -8 5 C-9.65 5.33 -11.3 5.66 -13 6 C-9.04608494 0.06912741 -7.07897132 -0.71989539 0 0 Z " fill="#10C7C5" transform="translate(492,909)"/>
<path d="M0 0 C3.63 0.33 7.26 0.66 11 1 C11 7.6 11 14.2 11 21 C7.04 21.33 3.08 21.66 -1 22 C-1 21.34 -1 20.68 -1 20 C2.3 19.67 5.6 19.34 9 19 C9 13.39 9 7.78 9 2 C6.03 2 3.06 2 0 2 C0 1.34 0 0.68 0 0 Z " fill="#1FC0BC" transform="translate(612,591)"/>
<path d="M0 0 C1.67316284 0.0314209 1.67316284 0.0314209 3.38012695 0.06347656 C4.58862305 0.07636719 5.79711914 0.08925781 7.04223633 0.10253906 C8.30487305 0.13605469 9.56750977 0.16957031 10.8684082 0.20410156 C12.14264648 0.22214844 13.41688477 0.24019531 14.72973633 0.25878906 C17.88087662 0.30599716 21.03051961 0.37183772 24.1809082 0.45410156 C22.8609082 1.77410156 21.5409082 3.09410156 20.1809082 4.45410156 C20.1809082 3.79410156 20.1809082 3.13410156 20.1809082 2.45410156 C16.72190342 2.56367086 13.26401711 2.69437005 9.8059082 2.82910156 C8.82106445 2.86003906 7.8362207 2.89097656 6.8215332 2.92285156 C5.88051758 2.96152344 4.93950195 3.00019531 3.9699707 3.04003906 C2.66600342 3.08717041 2.66600342 3.08717041 1.33569336 3.13525391 C-1.02870974 3.26639589 -1.02870974 3.26639589 -2.8190918 5.45410156 C-3.8090918 5.12410156 -4.7990918 4.79410156 -5.8190918 4.45410156 C-4.14503987 1.48143792 -3.44429981 0.55481057 0 0 Z " fill="#1FBCBC" transform="translate(404.819091796875,714.5458984375)"/>
<path d="M0 0 C0.66 0.66 1.32 1.32 2 2 C5.01263725 2.27891147 5.01263725 2.27891147 8.5390625 2.1953125 C9.84101563 2.18886719 11.14296875 2.18242188 12.484375 2.17578125 C13.86458595 2.15906929 15.24479429 2.14213939 16.625 2.125 C18.01301452 2.11497006 19.40103589 2.10584423 20.7890625 2.09765625 C24.19288026 2.07401863 27.59635506 2.04106867 31 2 C31 2.99 31 3.98 31 5 C21.1 5 11.2 5 1 5 C0.67 3.35 0.34 1.7 0 0 Z " fill="#D8FFFF" transform="translate(399,828)"/>
<path d="M0 0 C2.83236991 2.64354525 4.21844267 4.43688534 6 8 C-3.24 8 -12.48 8 -22 8 C-22.33 7.34 -22.66 6.68 -23 6 C-14.75 6 -6.5 6 2 6 C1.34 4.02 0.68 2.04 0 0 Z " fill="#21BAB7" transform="translate(423,823)"/>
<path d="M0 0 C2.1464753 0.11344376 4.29220592 0.24106345 6.4375 0.375 C8.22994141 0.47941406 8.22994141 0.47941406 10.05859375 0.5859375 C11.02925781 0.72257813 11.99992187 0.85921875 13 1 C13.33 1.66 13.66 2.32 14 3 C13.01 4.485 13.01 4.485 12 6 C7.86156404 6.81490438 4.08026677 6.63235128 0.4375 4.5 C-0.036875 4.005 -0.51125 3.51 -1 3 C-0.67 2.01 -0.34 1.02 0 0 Z " fill="#04CCCB" transform="translate(379,915)"/>
<path d="M0 0 C0.66 0.33 1.32 0.66 2 1 C0.43039961 4.66240092 -0.93903646 5.93903646 -4 9 C2.6 9 9.2 9 16 9 C15.01 7.02 14.02 5.04 13 3 C13.33 2.34 13.66 1.68 14 1 C18 7.625 18 7.625 18 11 C10.08 11 2.16 11 -6 11 C-4.96660413 4.79962481 -4.4396123 3.87043123 0 0 Z " fill="#C7FCFC" transform="translate(380,885)"/>
<path d="M0 0 C1.34888732 0.00015905 2.69778075 0.00584927 4.04663086 0.01586914 C5.10991859 0.01799156 5.10991859 0.01799156 6.19468689 0.02015686 C8.46699173 0.02577096 10.73919936 0.03832576 13.01147461 0.05102539 C14.54858257 0.05603858 16.08569206 0.0606018 17.62280273 0.06469727 C21.39823103 0.07574497 25.17358632 0.09301898 28.94897461 0.11352539 C29.44397461 1.59852539 29.44397461 1.59852539 29.94897461 3.11352539 C29.28897461 3.11352539 28.62897461 3.11352539 27.94897461 3.11352539 C27.61897461 3.77352539 27.28897461 4.43352539 26.94897461 5.11352539 C26.94897461 3.79352539 26.94897461 2.47352539 26.94897461 1.11352539 C17.37897461 1.11352539 7.80897461 1.11352539 -2.05102539 1.11352539 C-2.71102539 4.74352539 -3.37102539 8.37352539 -4.05102539 12.11352539 C-4.71102539 13.43352539 -5.37102539 14.75352539 -6.05102539 16.11352539 C-6.05102539 13.14352539 -6.05102539 10.17352539 -6.05102539 7.11352539 C-5.39102539 7.11352539 -4.73102539 7.11352539 -4.05102539 7.11352539 C-4.07165039 6.14415039 -4.09227539 5.17477539 -4.11352539 4.17602539 C-4.03136166 0.15000265 -4.03136166 0.15000265 0 0 Z " fill="#DAFEFE" transform="translate(529.051025390625,644.886474609375)"/>
<path d="M0 0 C0.33 0 0.66 0 1 0 C1.29359411 6.45907037 0.36433656 12.68620891 -1 19 C-1.33 19.33 -1.66 19.66 -2 20 C-2.56274765 22.68544346 -3.08061023 25.36253387 -3.5625 28.0625 C-3.70107422 28.82111328 -3.83964844 29.57972656 -3.98242188 30.36132812 C-4.32511827 32.24024975 -4.6630073 34.12004701 -5 36 C-5.66 36 -6.32 36 -7 36 C-6.33015012 28.13986276 -4.69766584 20.61933744 -2.9375 12.9375 C-2.65583984 11.69033203 -2.37417969 10.44316406 -2.08398438 9.15820312 C-1.39367318 6.10445361 -0.69891018 3.0517908 0 0 Z " fill="#29C2C0" transform="translate(486,586)"/>
<path d="M0 0 C-7.61272553 4.75848241 -13.39742791 5.60351591 -22.25 4.875 C-23.29929687 4.813125 -24.34859375 4.75125 -25.4296875 4.6875 C-30.33942307 4.37675724 -35.16573393 3.95018333 -40 3 C-40 2.34 -40 1.68 -40 1 C-39.06929688 1.15984375 -38.13859375 1.3196875 -37.1796875 1.484375 C-32.17110247 2.19449113 -27.1761977 2.22258509 -22.125 2.25 C-21.18269531 2.270625 -20.24039062 2.29125 -19.26953125 2.3125 C-13.59242919 2.34390859 -9.05115458 1.68403035 -3.77294922 -0.45019531 C-2 -1 -2 -1 0 0 Z " fill="#C4FDFD" transform="translate(492,830)"/>
<path d="M0 0 C0 3.19633438 -0.33810135 4.34096216 -2 7 C-2.61875 7.433125 -3.2375 7.86625 -3.875 8.3125 C-6.32348475 10.25688495 -7.28161446 12.36401772 -8.72265625 15.08984375 C-10.75124139 18.12341602 -13.47644531 20.23600482 -16.29296875 22.51953125 C-18.11312381 23.90733663 -18.11312381 23.90733663 -19 26 C-19.66 25.67 -20.32 25.34 -21 25 C-14.15487605 16.5300234 -7.11335539 8.24475202 0 0 Z " fill="#1FC2BE" transform="translate(382,739)"/>
<path d="M0 0 C0.97839844 0.24363281 0.97839844 0.24363281 1.9765625 0.4921875 C5.78593238 1.13200415 9.52551154 1.14518962 13.375 1.125 C14.10460937 1.12886719 14.83421875 1.13273438 15.5859375 1.13671875 C20.157444 1.12855535 24.49000287 0.7496829 29 0 C27.70988871 2.58022258 26.64960712 2.93899505 24 4 C21.7734375 4.25878906 21.7734375 4.25878906 19.375 4.265625 C18.06789063 4.26949219 18.06789063 4.26949219 16.734375 4.2734375 C15.83203125 4.26570312 14.9296875 4.25796875 14 4.25 C13.09765625 4.25773438 12.1953125 4.26546875 11.265625 4.2734375 C10.39421875 4.27085937 9.5228125 4.26828125 8.625 4.265625 C7.43777344 4.26224121 7.43777344 4.26224121 6.2265625 4.25878906 C3.77080507 3.97336112 2.13045776 3.22452681 0 2 C0 1.34 0 0.68 0 0 Z " fill="#D0FEFD" transform="translate(544,831)"/>
<path d="M0 0 C0.33 0.66 0.66 1.32 1 2 C-1.90235906 6.1302802 -4.31624127 8.11997619 -9 10 C-11.76496091 10.38112371 -14.46345565 10.37629451 -17.25 10.3125 C-17.96929688 10.31572266 -18.68859375 10.31894531 -19.4296875 10.32226562 C-24.73234981 10.26765019 -24.73234981 10.26765019 -27 8 C-25.68644531 7.95101562 -24.37289062 7.90203125 -23.01953125 7.8515625 C-21.28383405 7.77650532 -19.54815797 7.70095877 -17.8125 7.625 C-16.94818359 7.5940625 -16.08386719 7.563125 -15.19335938 7.53125 C-10.74104978 7.32654611 -7.05007413 7.06277067 -3 5 C-3 4.01 -3 3.02 -3 2 C-2.01 1.34 -1.02 0.68 0 0 Z " fill="#D1FDFD" transform="translate(680,807)"/>
<path d="M0 0 C1.79824219 0.00966797 1.79824219 0.00966797 3.6328125 0.01953125 C5.4890625 0.04466797 5.4890625 0.04466797 7.3828125 0.0703125 C8.64351562 0.07933594 9.90421875 0.08835937 11.203125 0.09765625 C14.3048829 0.12115442 17.40624902 0.15400916 20.5078125 0.1953125 C20.5078125 0.8553125 20.5078125 1.5153125 20.5078125 2.1953125 C19.8686792 2.17436523 19.2295459 2.15341797 18.57104492 2.13183594 C2.02900835 1.29445466 2.02900835 1.29445466 -13.4921875 6.1953125 C-14.24113281 6.56914063 -14.99007812 6.94296875 -15.76171875 7.328125 C-16.33277344 7.61429688 -16.90382813 7.90046875 -17.4921875 8.1953125 C-17.4921875 7.5353125 -17.4921875 6.8753125 -17.4921875 6.1953125 C-16.8321875 6.1953125 -16.1721875 6.1953125 -15.4921875 6.1953125 C-15.4921875 5.5353125 -15.4921875 4.8753125 -15.4921875 4.1953125 C-14.5021875 4.1953125 -13.5121875 4.1953125 -12.4921875 4.1953125 C-12.4921875 3.5353125 -12.4921875 2.8753125 -12.4921875 2.1953125 C-8.16398277 0.54728725 -4.62233166 -0.04402221 0 0 Z " fill="#C7F9F8" transform="translate(653.4921875,742.8046875)"/>
<path d="M0 0 C0.66 0.33 1.32 0.66 2 1 C0.73046875 2.46484375 -0.5390625 3.9296875 -1.80859375 5.39453125 C-3.20871231 7.10712971 -3.20871231 7.10712971 -4 10 C2.6 10 9.2 10 16 10 C16.33 8.68 16.66 7.36 17 6 C17.33 7.65 17.66 9.3 18 11 C10.08 11 2.16 11 -6 11 C-4.96660413 4.79962481 -4.4396123 3.87043123 0 0 Z " fill="#C8FEFE" transform="translate(625,885)"/>
<path d="M0 0 C0.66 0.33 1.32 0.66 2 1 C0.625 3 0.625 3 -1 5 C-1.66 5 -2.32 5 -3 5 C-3.33 10.94 -3.66 16.88 -4 23 C-3.34 23 -2.68 23 -2 23 C-2.33 23.99 -2.66 24.98 -3 26 C-5.78436157 22.05180476 -6.40870413 19.30845578 -6.375 14.5 C-6.38273438 13.3965625 -6.39046875 12.293125 -6.3984375 11.15625 C-5.78967935 6.3339305 -3.55105635 3.21286051 0 0 Z " fill="#D2FEFD" transform="translate(579,885)"/>
<path d="M0 0 C0.33 0 0.66 0 1 0 C1.33878061 6.01021895 0.99942766 10.85940738 -1.140625 16.4921875 C-2.56818585 20.65806962 -3.36224316 24.97015764 -4.25390625 29.27734375 C-5 32 -5 32 -7 34 C-5.3773341 22.52024424 -2.63486248 11.28022268 0 0 Z " fill="#25C1BF" transform="translate(478,622)"/>
<path d="M0 0 C0.66 0 1.32 0 2 0 C5.1001114 8.91282028 4.78019662 16.3811517 1 25 C0.67 25.99 0.34 26.98 0 28 C-0.66 28 -1.32 28 -2 28 C-1.67515625 26.85724609 -1.67515625 26.85724609 -1.34375 25.69140625 C1.09449114 16.64959535 1.56268447 9.18077127 0 0 Z " fill="#D4FEFE" transform="translate(357,880)"/>
<path d="M0 0 C0 0.66 0 1.32 0 2 C1.32 2 2.64 2 4 2 C4 2.66 4 3.32 4 4 C3.319375 3.835 2.63875 3.67 1.9375 3.5 C-5.20484173 2.28428226 -9.94008215 3.1829483 -16 7 C-16.66 7.66 -17.32 8.32 -18 9 C-18 7.02 -18 5.04 -18 3 C-16.68 3.33 -15.36 3.66 -14 4 C-14 3.34 -14 2.68 -14 2 C-9.35150485 -0.3992233 -5.08913926 -0.19957409 0 0 Z " fill="#DAFEFE" transform="translate(591,875)"/>
<path d="M0 0 C2.97 1.98 2.97 1.98 6 4 C5.01 4.33 4.02 4.66 3 5 C2.67 10.28 2.34 15.56 2 21 C1.34 21 0.68 21 0 21 C0 14.07 0 7.14 0 0 Z " fill="#D1FFFF" transform="translate(573,916)"/>
<path d="M0 0 C0.33 0 0.66 0 1 0 C1.02688151 1.64574566 1.04634123 3.29161413 1.0625 4.9375 C1.07410156 5.85402344 1.08570313 6.77054688 1.09765625 7.71484375 C1 10 1 10 0 11 C-0.56274765 13.68544346 -1.08061023 16.36253387 -1.5625 19.0625 C-1.70107422 19.82111328 -1.83964844 20.57972656 -1.98242188 21.36132812 C-2.32511827 23.24024975 -2.6630073 25.12004701 -3 27 C-3.66 27 -4.32 27 -5 27 C-4.39828638 20.67250629 -3.37848091 14.62404348 -1.9375 8.4375 C-1.75123047 7.61958984 -1.56496094 6.80167969 -1.37304688 5.95898438 C-0.91979313 3.97164104 -0.46053788 1.98566799 0 0 Z " fill="#CDFCFC" transform="translate(506,632)"/>
<path d="M0 0 C0.33 0 0.66 0 1 0 C1.02688151 1.64574566 1.04634123 3.29161413 1.0625 4.9375 C1.07410156 5.85402344 1.08570313 6.77054688 1.09765625 7.71484375 C1 10 1 10 0 11 C-0.23075082 12.34747084 -0.41153063 13.70377565 -0.5625 15.0625 C-0.706875 16.361875 -0.85125 17.66125 -1 19 C-1.66 19 -2.32 19 -3 19 C-3 21.97 -3 24.94 -3 28 C-3.66 28 -4.32 28 -5 28 C-4.38277416 18.43299944 -2.1798659 9.30752043 0 0 Z " fill="#CEFCFC" transform="translate(514,596)"/>
<path d="M0 0 C3.54825817 3.54825817 4.14589716 6.98216666 4.25 11.875 C4.15124378 16.27952758 3.65414824 19.90815963 2 24 C1.01 24.33 0.02 24.66 -1 25 C-0.855625 24.45472656 -0.71125 23.90945313 -0.5625 23.34765625 C1.40974065 15.3354286 1.37886676 8.10084222 0 0 Z " fill="#D3FDFD" transform="translate(603,888)"/>
<path d="M0 0 C0.33 0.99 0.66 1.98 1 3 C0.67 3.33 0.34 3.66 0 4 C-0.16003488 6.66426685 -0.25942889 9.30560428 -0.31640625 11.97265625 C-0.33718735 12.77029892 -0.35796844 13.56794159 -0.37937927 14.38975525 C-0.44496158 16.94724611 -0.50379967 19.5048428 -0.5625 22.0625 C-0.60567699 23.79232882 -0.64929101 25.52214679 -0.69335938 27.25195312 C-0.80065172 31.5011926 -0.90189426 35.7505389 -1 40 C-1.33 40 -1.66 40 -2 40 C-2.04935509 34.62485095 -2.08569802 29.24983315 -2.10986328 23.87451172 C-2.11993484 22.04506127 -2.13359276 20.21562697 -2.15087891 18.38623047 C-2.17507677 15.76005066 -2.18647132 13.13408325 -2.1953125 10.5078125 C-2.20563507 9.68693146 -2.21595764 8.86605042 -2.22659302 8.02029419 C-2.22699184 6.01210858 -2.1224954 4.00444618 -2 2 C-1.34 1.34 -0.68 0.68 0 0 Z " fill="#E3FFFF" transform="translate(360,791)"/>
<path d="M0 0 C4.41108026 3.98420153 4.87324949 6.03536717 5.25 11.875 C5.20530001 15.86074951 4.1546281 18.60231722 2 22 C1.34 22.33 0.68 22.66 0 23 C0.33 21.824375 0.66 20.64875 1 19.4375 C2.71312888 12.47485477 1.9067268 6.79271421 0 0 Z " fill="#CEFDFC" transform="translate(545,888)"/>
<path d="M0 0 C0.66 0.33 1.32 0.66 2 1 C2.0816082 3.37570543 2.14077222 5.74855841 2.1875 8.125 C2.22520508 9.12273438 2.22520508 9.12273438 2.26367188 10.140625 C2.33320714 14.86902292 1.40278375 17.95121479 -1 22 C-1.66 22 -2.32 22 -3 22 C-2.68289063 21.18273437 -2.36578125 20.36546875 -2.0390625 19.5234375 C-0.84890917 15.48765441 -0.55640657 11.80490968 -0.375 7.625 C-0.33632813 6.88894531 -0.29765625 6.15289063 -0.2578125 5.39453125 C-0.16442002 3.59672594 -0.0811629 1.79839892 0 0 Z " fill="#1DC3C1" transform="translate(351,884)"/>
<path d="M0 0 C0.66 0 1.32 0 2 0 C0.82054681 4.58676241 -1.40179534 6.49326848 -5.20703125 8.99609375 C-9.6020925 11.45694504 -14.07422813 11.09658376 -19 11 C-19 10.67 -19 10.34 -19 10 C-14.46298506 8.54815522 -10.81938524 7.76490804 -6 8 C-6 7.34 -6 6.68 -6 6 C-5.34 6 -4.68 6 -4 6 C-4 5.34 -4 4.68 -4 4 C-3.34 4 -2.68 4 -2 4 C-2 3.34 -2 2.68 -2 2 C-1.34 2 -0.68 2 0 2 C0 1.34 0 0.68 0 0 Z " fill="#CBFCFC" transform="translate(485,805)"/>
<path d="M0 0 C3.10707593 4.66061389 2.36858465 9.45558512 2.375 14.9375 C2.39949219 16.03513672 2.42398438 17.13277344 2.44921875 18.26367188 C2.45308594 19.32005859 2.45695313 20.37644531 2.4609375 21.46484375 C2.46915527 22.430271 2.47737305 23.39569824 2.48583984 24.39038086 C1.87134936 27.6910285 0.52820341 28.87855114 -2 31 C-1.8570752 30.40719238 -1.71415039 29.81438477 -1.56689453 29.20361328 C-0.11134006 22.67332217 0.24685613 16.54896675 0.125 9.875 C0.11146484 8.44027344 0.11146484 8.44027344 0.09765625 6.9765625 C0.07439827 4.65076475 0.04172213 2.32552706 0 0 Z " fill="#26BBB9" transform="translate(585,776)"/>
<path d="M0 0 C0.33 0.66 0.66 1.32 1 2 C-3.875 1.125 -3.875 1.125 -5 0 C-7.08135137 -0.0999519 -9.16625528 -0.12967207 -11.25 -0.125 C-12.38953125 -0.12757813 -13.5290625 -0.13015625 -14.703125 -0.1328125 C-17.60044376 -0.01609587 -20.18608964 0.33354755 -23 1 C-16.98260614 -5.92000294 -7.34180809 -3.34889492 0 0 Z " fill="#CCFDFD" transform="translate(482,764)"/>
<path d="M0 0 C1.8125 0.375 1.8125 0.375 4 1 C4.7425 1.185625 5.485 1.37125 6.25 1.5625 C6.8275 1.706875 7.405 1.85125 8 2 C7.34 3.32 6.68 4.64 6 6 C4.02 6 2.04 6 0 6 C-0.38218767 4.34385343 -0.71395102 2.67542976 -1 1 C-0.67 0.67 -0.34 0.34 0 0 Z " fill="#06CCC7" transform="translate(620,913)"/>
<path d="M0 0 C0.33 0.66 0.66 1.32 1 2 C0.69916504 2.73436279 0.39833008 3.46872559 0.08837891 4.2253418 C-1.16669659 7.42496786 -1.31653179 9.96470133 -1.4140625 13.39453125 C-1.45273437 14.59658203 -1.49140625 15.79863281 -1.53125 17.03710938 C-1.5621875 18.28298828 -1.593125 19.52886719 -1.625 20.8125 C-1.66367187 22.07771484 -1.70234375 23.34292969 -1.7421875 24.64648438 C-1.83630657 27.76417851 -1.92194361 30.88186914 -2 34 C-2.33 34 -2.66 34 -3 34 C-3.0744389 29.9615943 -3.12873729 25.92345707 -3.16479492 21.88452148 C-3.17983432 20.51205483 -3.20027133 19.13963586 -3.22631836 17.76733398 C-3.26291221 15.78911344 -3.27816698 13.81053486 -3.29296875 11.83203125 C-3.31653442 10.04889526 -3.31653442 10.04889526 -3.34057617 8.22973633 C-2.97040559 4.71935169 -2.03323257 2.84464948 0 0 Z " fill="#D8FEFE" transform="translate(669,887)"/>
<path d="M0 0 C1.14806133 3.41975716 0.83383098 5.72148953 0.00390625 9.203125 C-0.22490234 10.1828125 -0.45371094 11.1625 -0.68945312 12.171875 C-0.93630859 13.18765625 -1.18316406 14.2034375 -1.4375 15.25 C-1.80198242 16.796875 -1.80198242 16.796875 -2.17382812 18.375 C-2.77442781 20.91871633 -3.38341641 23.46011941 -4 26 C-4.33 26 -4.66 26 -5 26 C-5.02689216 24.52093108 -5.04634621 23.04172517 -5.0625 21.5625 C-5.07410156 20.73878906 -5.08570313 19.91507813 -5.09765625 19.06640625 C-5 17 -5 17 -4 16 C-3.87625 15.01 -3.7525 14.02 -3.625 13 C-3.04921505 8.45979411 -1.54647006 4.28926602 0 0 Z " fill="#21C0BD" transform="translate(528,530)"/>
<path d="M0 0 C0.33 1.32 0.66 2.64 1 4 C0.56429688 4.35191406 0.12859375 4.70382812 -0.3203125 5.06640625 C-4.70232497 8.69911356 -8.42563217 12.57459221 -12 17 C-12 13.53403258 -11.57421137 13.14155249 -9.375 10.64453125 C-8.83359375 10.02255859 -8.2921875 9.40058594 -7.734375 8.75976562 C-7.16203125 8.11716797 -6.5896875 7.47457031 -6 6.8125 C-5.42765625 6.15830078 -4.8553125 5.50410156 -4.265625 4.83007812 C-2.85032102 3.21427275 -1.42600082 1.60637294 0 0 Z " fill="#1EC1BF" transform="translate(398,720)"/>
<path d="M0 0 C0.99 0.33 1.98 0.66 3 1 C3.84375 3.40625 3.84375 3.40625 4.5 6.5 C5.55524663 11.20931872 6.83398935 15.65123668 8.546875 20.16015625 C9 22 9 22 8 25 C6.65882147 21.39870379 5.3284161 17.79352141 4 14.1875 C3.6184375 13.16333984 3.236875 12.13917969 2.84375 11.08398438 C2.4828125 10.10107422 2.121875 9.11816406 1.75 8.10546875 C1.41484375 7.19949951 1.0796875 6.29353027 0.734375 5.36010742 C0 3 0 3 0 0 Z " fill="#CDFDFD" transform="translate(418,878)"/>
<path d="M0 0 C-1.04874998 2.62187494 -1.64931313 3.79371361 -4.125 5.25 C-4.74375 5.4975 -5.3625 5.745 -6 6 C-6 7.32 -6 8.64 -6 10 C-6.66 10 -7.32 10 -8 10 C-8 12.97 -8 15.94 -8 19 C-8.33 19 -8.66 19 -9 19 C-9.50373716 12.04562862 -9.15965645 7.7046717 -5 2 C-2 0 -2 0 0 0 Z " fill="#D2FDFD" transform="translate(533,885)"/>
<path d="M0 0 C0.33 0.66 0.66 1.32 1 2 C0.113125 2.721875 -0.77375 3.44375 -1.6875 4.1875 C-3.80989502 5.94534247 -5.68887762 7.70527946 -7.625 9.6875 C-9.73250003 11.7395395 -11.30861664 12.90351048 -14 14 C-11.22834703 7.78767439 -6.0037269 3.09282901 0 0 Z " fill="#19C2C0" transform="translate(642,747)"/>
<path d="M0 0 C2.97 0 5.94 0 9 0 C9.66 1.98 10.32 3.96 11 6 C13.97 6.495 13.97 6.495 17 7 C17 7.33 17 7.66 17 8 C13.6875 7.75 13.6875 7.75 10 7 C8.5 5 8.5 5 7 3 C3.39534252 2.18685089 3.39534252 2.18685089 0 2 C0 1.34 0 0.68 0 0 Z " fill="#D0FCFC" transform="translate(684,907)"/>
<path d="M0 0 C0 2.31 0 4.62 0 7 C-2.64 7.33 -5.28 7.66 -8 8 C-8 7.34 -8 6.68 -8 6 C-5.69 6 -3.38 6 -1 6 C-1 4.68 -1 3.36 -1 2 C-1.9075 2.350625 -2.815 2.70125 -3.75 3.0625 C-6.87758436 3.96468779 -8.05208081 4.13381507 -11 3 C-7.16674383 0.29417212 -4.67461851 -0.32613618 0 0 Z " fill="#22BCBA" transform="translate(680,877)"/>
<path d="M0 0 C0.99 0.495 0.99 0.495 2 1 C2 1.66 2 2.32 2 3 C2.66 3 3.32 3 4 3 C4.66 4.98 5.32 6.96 6 9 C6.66 9 7.32 9 8 9 C8.33 9.99 8.66 10.98 9 12 C9.99 12.66 10.98 13.32 12 14 C11.67 15.32 11.34 16.64 11 18 C9.72651788 16.27278316 8.45632943 14.54313762 7.1875 12.8125 C6.12595703 11.36810547 6.12595703 11.36810547 5.04296875 9.89453125 C0 2.74952199 0 2.74952199 0 0 Z " fill="#25C2C0" transform="translate(379,796)"/>
<path d="M0 0 C3.0625 1.5 3.0625 1.5 5 3 C3 4 3 4 1.3125 3.5625 C-3.48814338 2.39477593 -8.23977339 2.84600567 -13 4 C-13 3.34 -13 2.68 -13 2 C-8.68278202 -0.45719209 -4.87425788 -0.59844091 0 0 Z " fill="#D4FDFD" transform="translate(477,875)"/>
<path d="M0 0 C0.99 0.33 1.98 0.66 3 1 C1.77937479 2.44475986 0.54807874 3.88050764 -0.6875 5.3125 C-1.37199219 6.11300781 -2.05648437 6.91351562 -2.76171875 7.73828125 C-5.03425574 10.03461444 -7.1321574 11.53040901 -10 13 C-10.66 13 -11.32 13 -12 13 C-12 12.34 -12 11.68 -12 11 C-11.01 11 -10.02 11 -9 11 C-9 10.34 -9 9.68 -9 9 C-8.0409375 8.5978125 -8.0409375 8.5978125 -7.0625 8.1875 C-4.66868314 7.11332248 -4.66868314 7.11332248 -4 4 C-1.9375 3.3125 -1.9375 3.3125 0 3 C0 2.01 0 1.02 0 0 Z " fill="#1EBFBD" transform="translate(694,816)"/>
<path d="M0 0 C1.35304209 4.05912626 0.15216503 5.77149591 -1.4375 9.6875 C-2.14712891 11.45673828 -2.14712891 11.45673828 -2.87109375 13.26171875 C-3.24363281 14.16535156 -3.61617188 15.06898438 -4 16 C-4.33 16 -4.66 16 -5 16 C-5.37104708 8.45537597 -5.37104708 8.45537597 -3.625 6.3125 C-3.08875 5.879375 -2.5525 5.44625 -2 5 C-0.80972016 2.40084462 -0.80972016 2.40084462 0 0 Z " fill="#1DC1BE" transform="translate(442,892)"/>
<path d="M0 0 C3.3125 -0.3125 3.3125 -0.3125 7 0 C8.9375 2.5 8.9375 2.5 10 5 C9.34 5 8.68 5 8 5 C7.67 4.34 7.34 3.68 7 3 C5.68 3 4.36 3 3 3 C3.33 4.65 3.66 6.3 4 8 C1.10067643 5.60490662 0.49831724 3.68754757 0 0 Z " fill="#27BEBC" transform="translate(684,909)"/>
<path d="M0 0 C-0.66 1.65 -1.32 3.3 -2 5 C-2.33 4.01 -2.66 3.02 -3 2 C-4.65 2 -6.3 2 -8 2 C-8.66 3.32 -9.32 4.64 -10 6 C-10.99 5.67 -11.98 5.34 -13 5 C-8.7797731 -0.27528362 -6.38501231 -0.54110274 0 0 Z " fill="#27BCB9" transform="translate(492,909)"/>
<path d="M0 0 C0.33 0.66 0.66 1.32 1 2 C0.12077066 3.46840364 -0.77916989 4.9244174 -1.6875 6.375 C-2.18636719 7.18710937 -2.68523437 7.99921875 -3.19921875 8.8359375 C-5.27475035 11.33017721 -6.93697902 12.05030695 -10 13 C-6.73279209 8.61105071 -3.45101522 4.24740335 0 0 Z " fill="#D5FEFE" transform="translate(426,718)"/>
<path d="M0 0 C0.33 0.99 0.66 1.98 1 3 C-0.1796875 4.68359375 -0.1796875 4.68359375 -1.875 6.4375 C-4.25704979 8.91372385 -5.41473456 10.58595163 -6 14 C-6.66 13.34 -7.32 12.68 -8 12 C-7.70116567 8.35268865 -5.84598073 6.37743352 -3.4375 3.75 C-2.79683594 3.04359375 -2.15617187 2.3371875 -1.49609375 1.609375 C-0.75552734 0.81273437 -0.75552734 0.81273437 0 0 Z " fill="#CFFEFE" transform="translate(393,757)"/>
<path d="M0 0 C0.33 0 0.66 0 1 0 C0.41509121 6.14154225 -0.54066252 12.00679849 -2 18 C-2.33 18 -2.66 18 -3 18 C-3.37634203 11.19796625 -2.77471079 6.24309927 0 0 Z " fill="#CFFCFC" transform="translate(498,529)"/>
<path d="M0 0 C1.85772162 0.08984301 3.71247985 0.24611861 5.5625 0.4375 C7.08037109 0.59025391 7.08037109 0.59025391 8.62890625 0.74609375 C9.80259766 0.87177734 9.80259766 0.87177734 11 1 C11 1.33 11 1.66 11 2 C10.32453125 2.10957031 9.6490625 2.21914063 8.953125 2.33203125 C8.06109375 2.49058594 7.1690625 2.64914062 6.25 2.8125 C5.36828125 2.96332031 4.4865625 3.11414063 3.578125 3.26953125 C0.8089089 4.05414248 -0.8259401 5.14595359 -3 7 C-1.125 1.125 -1.125 1.125 0 0 Z " fill="#21C5C4" transform="translate(578,882)"/>
<path d="M0 0 C0.67095703 0.58007812 0.67095703 0.58007812 1.35546875 1.171875 C4.8521026 4.18390075 8.37407463 7.14321031 12 10 C8.28657305 9.28587943 5.20091333 8.0179671 2 6 C0.625 2.8125 0.625 2.8125 0 0 Z " fill="#D4FEFE" transform="translate(531,821)"/>
<path d="M0 0 C0.66 0 1.32 0 2 0 C2.66 0.66 3.32 1.32 4 2 C5.80383858 3.5330545 7.62125462 5.04886039 9.44140625 6.5625 C11 8 11 8 12 10 C7.15853891 8.53289058 3.44051028 5.6487256 0 2 C0 1.34 0 0.68 0 0 Z " fill="#21C0BE" transform="translate(438,819)"/>
<path d="M0 0 C0.75 1.6875 0.75 1.6875 1 4 C-0.875 6.5625 -0.875 6.5625 -3 9 C-3.33 9.99 -3.66 10.98 -4 12 C-4.99 11.34 -5.98 10.68 -7 10 C-5.76551991 6.29655972 -3.76665659 4.69749018 -1 2 C-0.67 1.34 -0.34 0.68 0 0 Z " fill="#CFFEFE" transform="translate(436,594)"/>
<path d="M0 0 C2.64 0 5.28 0 8 0 C8.33 1.65 8.66 3.3 9 5 C8.34 4.67 7.68 4.34 7 4 C7 3.01 7 2.02 7 1 C5.68 1 4.36 1 3 1 C3 2.98 3 4.96 3 7 C0.64046906 4.64046906 0.50858587 3.22104383 0 0 Z " fill="#25B9B4" transform="translate(410,878)"/>
<path d="M0 0 C0.66 0.33 1.32 0.66 2 1 C0.76302083 2.46484375 -0.47395833 3.9296875 -1.7109375 5.39453125 C-2.89201099 6.8655046 -3.95358529 8.43037794 -5 10 C-4.50769231 3.47692308 -4.50769231 3.47692308 -1.9375 1.0625 C-0.9784375 0.5365625 -0.9784375 0.5365625 0 0 Z " fill="#DAFEFE" transform="translate(625,885)"/>
<path d="M0 0 C1.98 0 3.96 0 6 0 C4.17725047 1.21516636 2.3280819 2.39331792 0.4375 3.5 C-2.06417819 4.9097645 -2.06417819 4.9097645 -4 7 C-4 5.02 -4 3.04 -4 1 C-2.68 1.33 -1.36 1.66 0 2 C0 1.34 0 0.68 0 0 Z " fill="#C6FEFE" transform="translate(577,877)"/>
<path d="M0 0 C-1.70828921 2.10633718 -2.52148416 2.93801608 -5.26171875 3.29296875 C-6.06222656 3.25816406 -6.86273437 3.22335937 -7.6875 3.1875 C-8.89986328 3.14689453 -8.89986328 3.14689453 -10.13671875 3.10546875 C-11.05904297 3.05326172 -11.05904297 3.05326172 -12 3 C-8.48214012 -0.51785988 -4.80656342 -0.10924008 0 0 Z " fill="#CEFEFE" transform="translate(664,760)"/>
<path d="M0 0 C0.33 1.32 0.66 2.64 1 4 C0.34 4 -0.32 4 -1 4 C-1 4.66 -1 5.32 -1 6 C-1.99 6 -2.98 6 -4 6 C-4 6.66 -4 7.32 -4 8 C-5.32 7.67 -6.64 7.34 -8 7 C-5.36 4.69 -2.72 2.38 0 0 Z " fill="#CDFCFC" transform="translate(604,669)"/>
<path d="M0 0 C0.33 0 0.66 0 1 0 C1.05416188 1.60379341 1.09286638 3.20811406 1.125 4.8125 C1.14820313 5.70582031 1.17140625 6.59914063 1.1953125 7.51953125 C1 10 1 10 -1 13 C-1.66 13 -2.32 13 -3 13 C-2.01 8.71 -1.02 4.42 0 0 Z " fill="#1EC0BD" transform="translate(490,794)"/>
<path d="M0 0 C0.66 0.33 1.32 0.66 2 1 C0.35 4.63 -1.3 8.26 -3 12 C-3.33 12 -3.66 12 -4 12 C-4 10.02 -4 8.04 -4 6 C-3.34 6 -2.68 6 -2 6 C-1.855625 5.195625 -1.71125 4.39125 -1.5625 3.5625 C-1 1 -1 1 0 0 Z " fill="#CDFDFC" transform="translate(433,760)"/>
<path d="M0 0 C1.79323253 0.28187936 3.58457126 0.5758281 5.375 0.875 C6.37273438 1.03742187 7.37046875 1.19984375 8.3984375 1.3671875 C11 2 11 2 13 4 C7.73946963 4.31563182 4.55426184 3.66590937 0 1 C0 0.67 0 0.34 0 0 Z " fill="#CCFCFC" transform="translate(694,901)"/>
<path d="M0 0 C0.33 0 0.66 0 1 0 C1.10884119 1.41493551 1.18597617 2.83232943 1.25 4.25 C1.29640625 5.03890625 1.3428125 5.8278125 1.390625 6.640625 C1 9 1 9 -3 13 C-2.01 8.71 -1.02 4.42 0 0 Z " fill="#CCFCFC" transform="translate(512,796)"/>
<path d="M0 0 C0.99 0 1.98 0 3 0 C1.44499019 3.81684226 -1.03595495 6.19195732 -4 9 C-4 7.68 -4 6.36 -4 5 C-3.34 5 -2.68 5 -2 5 C-2 4.34 -2 3.68 -2 3 C-1.34 3 -0.68 3 0 3 C0 2.01 0 1.02 0 0 Z " fill="#D7FEFD" transform="translate(397,717)"/>
<path d="M0 0 C0.33 0 0.66 0 1 0 C1.08121924 1.60332791 1.13929134 3.20784026 1.1875 4.8125 C1.23970703 6.15248047 1.23970703 6.15248047 1.29296875 7.51953125 C0.95081002 10.41647515 0.24606427 11.22555028 -2 13 C-1.85769192 11.58297487 -1.71099254 10.1663904 -1.5625 8.75 C-1.48128906 7.96109375 -1.40007812 7.1721875 -1.31640625 6.359375 C-1.02365007 4.17635361 -0.57935581 2.1226818 0 0 Z " fill="#CDFCFC" transform="translate(500,659)"/>
<path d="M0 0 C0 0.99 0 1.98 0 3 C-2.80905477 4.98974713 -4.87286664 5.1011012 -8.1875 4.75 C-10.0746875 4.37875 -10.0746875 4.37875 -12 4 C-12.33 3.34 -12.66 2.68 -13 2 C-12.39671875 2.02320313 -11.7934375 2.04640625 -11.171875 2.0703125 C-10.37265625 2.08835937 -9.5734375 2.10640625 -8.75 2.125 C-7.56664062 2.15980469 -7.56664062 2.15980469 -6.359375 2.1953125 C-3.79268059 1.9828378 -2.2083933 1.28654105 0 0 Z " fill="#1FBEBE" transform="translate(544,912)"/>
<path d="M0 0 C0.66 0.33 1.32 0.66 2 1 C0.60667426 4.36720387 -0.9789286 5.9859524 -4 8 C-3.6875 5.125 -3.6875 5.125 -3 2 C-2.01 1.34 -1.02 0.68 0 0 Z " fill="#D9FCFC" transform="translate(380,885)"/>
<path d="M0 0 C7.38461538 -0.36923077 7.38461538 -0.36923077 10.5 1.5 C10.995 1.995 11.49 2.49 12 3 C11.67 3.66 11.34 4.32 11 5 C8.525 4.01 8.525 4.01 6 3 C6 2.34 6 1.68 6 1 C4.02 1 2.04 1 0 1 C0 0.67 0 0.34 0 0 Z " fill="#D1FEFF" transform="translate(697,884)"/>
<path d="M0 0 C4.20390632 1.50139512 5.89110738 4.17275043 8 8 C7.67 8.99 7.34 9.98 7 11 C3 5.25 3 5.25 3 3 C2.01 2.67 1.02 2.34 0 2 C0 1.34 0 0.68 0 0 Z " fill="#2BC3C1" transform="translate(348,869)"/>
<path d="M0 0 C3.63 1.98 7.26 3.96 11 6 C7 7 7 7 5.078125 6.07421875 C4.47484375 5.61660156 3.8715625 5.15898438 3.25 4.6875 C2.63640625 4.23761719 2.0228125 3.78773438 1.390625 3.32421875 C0.93171875 2.88722656 0.4728125 2.45023438 0 2 C0 1.34 0 0.68 0 0 Z " fill="#D1FDFD" transform="translate(441,824)"/>
<path d="M0 0 C0.33 0 0.66 0 1 0 C1.25 6.625 1.25 6.625 -1 10 C-1.66 10 -2.32 10 -3 10 C-2.01 6.7 -1.02 3.4 0 0 Z " fill="#C9FAFA" transform="translate(446,884)"/>
<path d="M0 0 C0.33 0.66 0.66 1.32 1 2 C-0.0625 4.5625 -0.0625 4.5625 -2 7 C-5.1875 7.8125 -5.1875 7.8125 -8 8 C-7.236875 7.4225 -6.47375 6.845 -5.6875 6.25 C-3.33799083 4.28296907 -1.70676495 2.51523256 0 0 Z " fill="#1CC1BE" transform="translate(486,807)"/>
<path d="M0 0 C0.33 0.66 0.66 1.32 1 2 C-0.98 4.97 -0.98 4.97 -3 8 C-4.32 7.67 -5.64 7.34 -7 7 C-6.21625 6.401875 -5.4325 5.80375 -4.625 5.1875 C-1.85425677 3.08914751 -1.85425677 3.08914751 0 0 Z " fill="#CEFBFC" transform="translate(601,913)"/>
<path d="M0 0 C0.66 0.33 1.32 0.66 2 1 C2.25 3.25 2.25 3.25 2 6 C0 8.3125 0 8.3125 -2 10 C-1.34 6.7 -0.68 3.4 0 0 Z " fill="#22C2BF" transform="translate(585,797)"/>
<path d="M0 0 C3.71162994 1.85581497 5.01775064 2.55714584 7 6 C6.67 6.99 6.34 7.98 6 9 C4.02 6.03 2.04 3.06 0 0 Z " fill="#CAFCFC" transform="translate(406,798)"/>
<path d="M0 0 C3.73884332 2.65654657 5.64978174 4.58110387 7 9 C5.82460004 8.07347299 4.65989423 7.13336613 3.5 6.1875 C2.52546875 5.40439453 2.52546875 5.40439453 1.53125 4.60546875 C0 3 0 3 0 0 Z " fill="#21BFBF" transform="translate(687,753)"/>
<path d="M0 0 C1.0209375 0.2165625 1.0209375 0.2165625 2.0625 0.4375 C5.36273082 1.06945909 8.67144426 1.54313941 12 2 C12 2.33 12 2.66 12 3 C10.56344146 3.08131463 9.1255517 3.13933559 7.6875 3.1875 C6.48673828 3.23970703 6.48673828 3.23970703 5.26171875 3.29296875 C2.52148416 2.93801608 1.70828921 2.10633718 0 0 Z " fill="#CEFCFB" transform="translate(611,589)"/>
</svg>
